<?xml version="1.0" encoding="UTF-8" standalone="no"?>
<svg
   viewBox="0 0 4000 2680"
   height="2680"
   width="4000"
   xml:space="preserve"
   id="svg2"
   version="1.1"
   sodipodi:docname="Rejoice-Gui2.svg"
   inkscape:version="1.4.4 (dcaf3e7, 2026-05-05)"
   xmlns:inkscape="http://www.inkscape.org/namespaces/inkscape"
   xmlns:sodipodi="http://sodipodi.sourceforge.net/DTD/sodipodi-0.dtd"
   xmlns="http://www.w3.org/2000/svg"
   xmlns:svg="http://www.w3.org/2000/svg"
   xmlns:rdf="http://www.w3.org/1999/02/22-rdf-syntax-ns#"
   xmlns:cc="http://creativecommons.org/ns#"
   xmlns:dc="http://purl.org/dc/elements/1.1/"><sodipodi:namedview
     id="namedview1"
     pagecolor="#ffffff"
     bordercolor="#000000"
     borderopacity="0.25"
     inkscape:showpageshadow="2"
     inkscape:pageopacity="0.0"
     inkscape:pagecheckerboard="0"
     inkscape:deskcolor="#d1d1d1"
     inkscape:zoom="0.23309054"
     inkscape:cx="1999.2231"
     inkscape:cy="2340.2923"
     inkscape:window-width="2560"
     inkscape:window-height="1511"
     inkscape:window-x="-9"
     inkscape:window-y="-9"
     inkscape:window-maximized="1"
     inkscape:current-layer="g10" /><metadata
     id="metadata8"><rdf:RDF><cc:Work
         rdf:about=""><dc:format>image/svg+xml</dc:format><dc:type
           rdf:resource="http://purl.org/dc/dcmitype/StillImage" /></cc:Work></rdf:RDF></metadata><defs
     id="defs6"><clipPath
       id="clipPath20"
       clipPathUnits="userSpaceOnUse"><path
         id="path18"
         d="M 0,4025.265 H 3000 V 0 H 0 Z" /></clipPath><linearGradient
       id="linearGradient60"
       spreadMethod="pad"
       gradientTransform="matrix(0,777.08246,777.08246,0,1894.2827,2483.2192)"
       gradientUnits="userSpaceOnUse"
       y2="0"
       x2="1"
       y1="0"
       x1="0"><stop
         id="stop54"
         offset="0"
         style="stop-opacity:1;stop-color:#f6a000" /><stop
         id="stop56"
         offset="0.999359"
         style="stop-opacity:1;stop-color:#ffd500" /><stop
         id="stop58"
         offset="1"
         style="stop-opacity:1;stop-color:#ffd500" /></linearGradient><linearGradient
       id="linearGradient82"
       spreadMethod="pad"
       gradientTransform="matrix(0,777.08246,777.08246,0,1194.4913,2483.2192)"
       gradientUnits="userSpaceOnUse"
       y2="0"
       x2="1"
       y1="0"
       x1="0"><stop
         id="stop76"
         offset="0"
         style="stop-opacity:1;stop-color:#f6a000" /><stop
         id="stop78"
         offset="0.999359"
         style="stop-opacity:1;stop-color:#ffd500" /><stop
         id="stop80"
         offset="1"
         style="stop-opacity:1;stop-color:#ffd500" /></linearGradient><linearGradient
       id="linearGradient104"
       spreadMethod="pad"
       gradientTransform="matrix(0,777.08246,777.08246,0,1528.2834,2483.2192)"
       gradientUnits="userSpaceOnUse"
       y2="0"
       x2="1"
       y1="0"
       x1="0"><stop
         id="stop98"
         offset="0"
         style="stop-opacity:1;stop-color:#f6a000" /><stop
         id="stop100"
         offset="0.999359"
         style="stop-opacity:1;stop-color:#ffd500" /><stop
         id="stop102"
         offset="1"
         style="stop-opacity:1;stop-color:#ffd500" /></linearGradient><linearGradient
       id="linearGradient126"
       spreadMethod="pad"
       gradientTransform="matrix(0,777.08246,777.08246,0,1417.1793,2483.2192)"
       gradientUnits="userSpaceOnUse"
       y2="0"
       x2="1"
       y1="0"
       x1="0"><stop
         id="stop120"
         offset="0"
         style="stop-opacity:1;stop-color:#f6a000" /><stop
         id="stop122"
         offset="0.999359"
         style="stop-opacity:1;stop-color:#ffd500" /><stop
         id="stop124"
         offset="1"
         style="stop-opacity:1;stop-color:#ffd500" /></linearGradient><linearGradient
       id="linearGradient148"
       spreadMethod="pad"
       gradientTransform="matrix(0,777.08246,777.08246,0,2304.2446,2483.2192)"
       gradientUnits="userSpaceOnUse"
       y2="0"
       x2="1"
       y1="0"
       x1="0"><stop
         id="stop142"
         offset="0"
         style="stop-opacity:1;stop-color:#f6a000" /><stop
         id="stop144"
         offset="0.999359"
         style="stop-opacity:1;stop-color:#ffd500" /><stop
         id="stop146"
         offset="1"
         style="stop-opacity:1;stop-color:#ffd500" /></linearGradient><linearGradient
       id="linearGradient170"
       spreadMethod="pad"
       gradientTransform="matrix(0,777.08246,777.08246,0,1272.4386,2483.2192)"
       gradientUnits="userSpaceOnUse"
       y2="0"
       x2="1"
       y1="0"
       x1="0"><stop
         id="stop164"
         offset="0"
         style="stop-opacity:1;stop-color:#f6a000" /><stop
         id="stop166"
         offset="0.999359"
         style="stop-opacity:1;stop-color:#ffd500" /><stop
         id="stop168"
         offset="1"
         style="stop-opacity:1;stop-color:#ffd500" /></linearGradient><linearGradient
       id="linearGradient192"
       spreadMethod="pad"
       gradientTransform="matrix(0,777.08246,777.08246,0,1613.415,2483.2192)"
       gradientUnits="userSpaceOnUse"
       y2="0"
       x2="1"
       y1="0"
       x1="0"><stop
         id="stop186"
         offset="0"
         style="stop-opacity:1;stop-color:#f6a000" /><stop
         id="stop188"
         offset="0.999359"
         style="stop-opacity:1;stop-color:#ffd500" /><stop
         id="stop190"
         offset="1"
         style="stop-opacity:1;stop-color:#ffd500" /></linearGradient><linearGradient
       id="linearGradient214"
       spreadMethod="pad"
       gradientTransform="matrix(0,777.08246,777.08246,0,1208.3162,2483.2192)"
       gradientUnits="userSpaceOnUse"
       y2="0"
       x2="1"
       y1="0"
       x1="0"><stop
         id="stop208"
         offset="0"
         style="stop-opacity:1;stop-color:#f6a000" /><stop
         id="stop210"
         offset="0.999359"
         style="stop-opacity:1;stop-color:#ffd500" /><stop
         id="stop212"
         offset="1"
         style="stop-opacity:1;stop-color:#ffd500" /></linearGradient><linearGradient
       id="linearGradient236"
       spreadMethod="pad"
       gradientTransform="matrix(0,777.08246,777.08246,0,1278.1316,2483.2192)"
       gradientUnits="userSpaceOnUse"
       y2="0"
       x2="1"
       y1="0"
       x1="0"><stop
         id="stop230"
         offset="0"
         style="stop-opacity:1;stop-color:#f6a000" /><stop
         id="stop232"
         offset="0.999359"
         style="stop-opacity:1;stop-color:#ffd500" /><stop
         id="stop234"
         offset="1"
         style="stop-opacity:1;stop-color:#ffd500" /></linearGradient><linearGradient
       id="linearGradient258"
       spreadMethod="pad"
       gradientTransform="matrix(0,777.08246,777.08246,0,1525.3141,2483.2192)"
       gradientUnits="userSpaceOnUse"
       y2="0"
       x2="1"
       y1="0"
       x1="0"><stop
         id="stop252"
         offset="0"
         style="stop-opacity:1;stop-color:#f6a000" /><stop
         id="stop254"
         offset="0.999359"
         style="stop-opacity:1;stop-color:#ffd500" /><stop
         id="stop256"
         offset="1"
         style="stop-opacity:1;stop-color:#ffd500" /></linearGradient><linearGradient
       id="linearGradient280"
       spreadMethod="pad"
       gradientTransform="matrix(0,777.08246,777.08246,0,827.30408,2483.2192)"
       gradientUnits="userSpaceOnUse"
       y2="0"
       x2="1"
       y1="0"
       x1="0"><stop
         id="stop274"
         offset="0"
         style="stop-opacity:1;stop-color:#f6a000" /><stop
         id="stop276"
         offset="0.999359"
         style="stop-opacity:1;stop-color:#ffd500" /><stop
         id="stop278"
         offset="1"
         style="stop-opacity:1;stop-color:#ffd500" /></linearGradient><linearGradient
       id="linearGradient302"
       spreadMethod="pad"
       gradientTransform="matrix(0,777.08246,777.08246,0,1363.436,2483.2192)"
       gradientUnits="userSpaceOnUse"
       y2="0"
       x2="1"
       y1="0"
       x1="0"><stop
         id="stop296"
         offset="0"
         style="stop-opacity:1;stop-color:#f6a000" /><stop
         id="stop298"
         offset="0.999359"
         style="stop-opacity:1;stop-color:#ffd500" /><stop
         id="stop300"
         offset="1"
         style="stop-opacity:1;stop-color:#ffd500" /></linearGradient><clipPath
       id="clipPath312"
       clipPathUnits="userSpaceOnUse"><path
         id="path310"
         d="M 0,4025.265 H 3000 V 0 H 0 Z" /></clipPath><linearGradient
       id="linearGradient348"
       spreadMethod="pad"
       gradientTransform="matrix(0,784.05872,784.05872,0,1880.8652,2475.4006)"
       gradientUnits="userSpaceOnUse"
       y2="0"
       x2="1"
       y1="0"
       x1="0"><stop
         id="stop342"
         offset="0"
         style="stop-opacity:1;stop-color:#f6a000" /><stop
         id="stop344"
         offset="0.999359"
         style="stop-opacity:1;stop-color:#ffd500" /><stop
         id="stop346"
         offset="1"
         style="stop-opacity:1;stop-color:#ffd500" /></linearGradient><clipPath
       id="clipPath358"
       clipPathUnits="userSpaceOnUse"><path
         id="path356"
         d="M 0,4025.265 H 3000 V 0 H 0 Z" /></clipPath><linearGradient
       id="linearGradient402"
       spreadMethod="pad"
       gradientTransform="matrix(0,777.08246,777.08246,0,1894.2827,629.22803)"
       gradientUnits="userSpaceOnUse"
       y2="0"
       x2="1"
       y1="0"
       x1="0"><stop
         id="stop396"
         offset="0"
         style="stop-opacity:1;stop-color:#f6a000" /><stop
         id="stop398"
         offset="0.999359"
         style="stop-opacity:1;stop-color:#ffd500" /><stop
         id="stop400"
         offset="1"
         style="stop-opacity:1;stop-color:#ffd500" /></linearGradient><linearGradient
       id="linearGradient424"
       spreadMethod="pad"
       gradientTransform="matrix(0,777.08246,777.08246,0,1194.4913,629.22803)"
       gradientUnits="userSpaceOnUse"
       y2="0"
       x2="1"
       y1="0"
       x1="0"><stop
         id="stop418"
         offset="0"
         style="stop-opacity:1;stop-color:#f6a000" /><stop
         id="stop420"
         offset="0.999359"
         style="stop-opacity:1;stop-color:#ffd500" /><stop
         id="stop422"
         offset="1"
         style="stop-opacity:1;stop-color:#ffd500" /></linearGradient><linearGradient
       id="linearGradient446"
       spreadMethod="pad"
       gradientTransform="matrix(0,777.08246,777.08246,0,1528.2834,629.22803)"
       gradientUnits="userSpaceOnUse"
       y2="0"
       x2="1"
       y1="0"
       x1="0"><stop
         id="stop440"
         offset="0"
         style="stop-opacity:1;stop-color:#f6a000" /><stop
         id="stop442"
         offset="0.999359"
         style="stop-opacity:1;stop-color:#ffd500" /><stop
         id="stop444"
         offset="1"
         style="stop-opacity:1;stop-color:#ffd500" /></linearGradient><linearGradient
       id="linearGradient468"
       spreadMethod="pad"
       gradientTransform="matrix(0,777.08246,777.08246,0,1417.1793,629.22803)"
       gradientUnits="userSpaceOnUse"
       y2="0"
       x2="1"
       y1="0"
       x1="0"><stop
         id="stop462"
         offset="0"
         style="stop-opacity:1;stop-color:#f6a000" /><stop
         id="stop464"
         offset="0.999359"
         style="stop-opacity:1;stop-color:#ffd500" /><stop
         id="stop466"
         offset="1"
         style="stop-opacity:1;stop-color:#ffd500" /></linearGradient><linearGradient
       id="linearGradient490"
       spreadMethod="pad"
       gradientTransform="matrix(0,777.08246,777.08246,0,2304.2446,629.22803)"
       gradientUnits="userSpaceOnUse"
       y2="0"
       x2="1"
       y1="0"
       x1="0"><stop
         id="stop484"
         offset="0"
         style="stop-opacity:1;stop-color:#f6a000" /><stop
         id="stop486"
         offset="0.999359"
         style="stop-opacity:1;stop-color:#ffd500" /><stop
         id="stop488"
         offset="1"
         style="stop-opacity:1;stop-color:#ffd500" /></linearGradient><linearGradient
       id="linearGradient512"
       spreadMethod="pad"
       gradientTransform="matrix(0,777.08246,777.08246,0,1272.4386,629.22803)"
       gradientUnits="userSpaceOnUse"
       y2="0"
       x2="1"
       y1="0"
       x1="0"><stop
         id="stop506"
         offset="0"
         style="stop-opacity:1;stop-color:#f6a000" /><stop
         id="stop508"
         offset="0.999359"
         style="stop-opacity:1;stop-color:#ffd500" /><stop
         id="stop510"
         offset="1"
         style="stop-opacity:1;stop-color:#ffd500" /></linearGradient><linearGradient
       id="linearGradient534"
       spreadMethod="pad"
       gradientTransform="matrix(0,777.08246,777.08246,0,1613.415,629.22803)"
       gradientUnits="userSpaceOnUse"
       y2="0"
       x2="1"
       y1="0"
       x1="0"><stop
         id="stop528"
         offset="0"
         style="stop-opacity:1;stop-color:#f6a000" /><stop
         id="stop530"
         offset="0.999359"
         style="stop-opacity:1;stop-color:#ffd500" /><stop
         id="stop532"
         offset="1"
         style="stop-opacity:1;stop-color:#ffd500" /></linearGradient><linearGradient
       id="linearGradient556"
       spreadMethod="pad"
       gradientTransform="matrix(0,777.08246,777.08246,0,1208.3162,629.22803)"
       gradientUnits="userSpaceOnUse"
       y2="0"
       x2="1"
       y1="0"
       x1="0"><stop
         id="stop550"
         offset="0"
         style="stop-opacity:1;stop-color:#f6a000" /><stop
         id="stop552"
         offset="0.999359"
         style="stop-opacity:1;stop-color:#ffd500" /><stop
         id="stop554"
         offset="1"
         style="stop-opacity:1;stop-color:#ffd500" /></linearGradient><linearGradient
       id="linearGradient578"
       spreadMethod="pad"
       gradientTransform="matrix(0,777.08246,777.08246,0,1278.1316,629.22803)"
       gradientUnits="userSpaceOnUse"
       y2="0"
       x2="1"
       y1="0"
       x1="0"><stop
         id="stop572"
         offset="0"
         style="stop-opacity:1;stop-color:#f6a000" /><stop
         id="stop574"
         offset="0.999359"
         style="stop-opacity:1;stop-color:#ffd500" /><stop
         id="stop576"
         offset="1"
         style="stop-opacity:1;stop-color:#ffd500" /></linearGradient><linearGradient
       id="linearGradient600"
       spreadMethod="pad"
       gradientTransform="matrix(0,777.08246,777.08246,0,1525.3141,629.22803)"
       gradientUnits="userSpaceOnUse"
       y2="0"
       x2="1"
       y1="0"
       x1="0"><stop
         id="stop594"
         offset="0"
         style="stop-opacity:1;stop-color:#f6a000" /><stop
         id="stop596"
         offset="0.999359"
         style="stop-opacity:1;stop-color:#ffd500" /><stop
         id="stop598"
         offset="1"
         style="stop-opacity:1;stop-color:#ffd500" /></linearGradient><linearGradient
       id="linearGradient622"
       spreadMethod="pad"
       gradientTransform="matrix(0,777.08246,777.08246,0,827.30408,629.22803)"
       gradientUnits="userSpaceOnUse"
       y2="0"
       x2="1"
       y1="0"
       x1="0"><stop
         id="stop616"
         offset="0"
         style="stop-opacity:1;stop-color:#f6a000" /><stop
         id="stop618"
         offset="0.999359"
         style="stop-opacity:1;stop-color:#ffd500" /><stop
         id="stop620"
         offset="1"
         style="stop-opacity:1;stop-color:#ffd500" /></linearGradient><linearGradient
       id="linearGradient644"
       spreadMethod="pad"
       gradientTransform="matrix(0,777.08246,777.08246,0,1363.436,629.22803)"
       gradientUnits="userSpaceOnUse"
       y2="0"
       x2="1"
       y1="0"
       x1="0"><stop
         id="stop638"
         offset="0"
         style="stop-opacity:1;stop-color:#f6a000" /><stop
         id="stop640"
         offset="0.999359"
         style="stop-opacity:1;stop-color:#ffd500" /><stop
         id="stop642"
         offset="1"
         style="stop-opacity:1;stop-color:#ffd500" /></linearGradient><clipPath
       id="clipPath654"
       clipPathUnits="userSpaceOnUse"><path
         id="path652"
         d="M 0,4025.265 H 3000 V 0 H 0 Z" /></clipPath><linearGradient
       id="linearGradient690"
       spreadMethod="pad"
       gradientTransform="matrix(0,784.05872,784.05872,0,1880.8652,621.4093)"
       gradientUnits="userSpaceOnUse"
       y2="0"
       x2="1"
       y1="0"
       x1="0"><stop
         id="stop684"
         offset="0"
         style="stop-opacity:1;stop-color:#f6a000" /><stop
         id="stop686"
         offset="0.999359"
         style="stop-opacity:1;stop-color:#ffd500" /><stop
         id="stop688"
         offset="1"
         style="stop-opacity:1;stop-color:#ffd500" /></linearGradient><clipPath
       id="clipPath700"
       clipPathUnits="userSpaceOnUse"><path
         id="path698"
         d="M 0,4025.265 H 3000 V 0 H 0 Z" /></clipPath></defs><g
     transform="matrix(1.3333333,0,0,-1.3333333,0,5367.0133)"
     id="g10"><path
       id="path12"
       style="fill:#e5e5e4;fill-opacity:1;fill-rule:nonzero;stroke:none"
       d="M 0,1985.162 H 3000 V 4025.265 H 0 Z" /><g
       id="g14"><g
         clip-path="url(#clipPath20)"
         id="g16"><g
           transform="translate(2209.3032,2855.3831)"
           id="g22"><path
             id="path24"
             style="fill:#fefefd;fill-opacity:1;fill-rule:nonzero;stroke:none"
             d="m 0,0 c -9.563,-9.695 -19.266,-19.325 -31.542,-25.633 -12.386,-6.365 -17.742,-3.244 -22.22,9.672 -4.958,14.301 -8.765,28.921 -13.11,43.373 -2.341,7.784 -2.31,16.357 -2.774,24.607 -0.429,7.637 -0.091,15.317 -0.091,22.979 -0.001,5.995 -0.018,11.991 0.003,17.987 0.025,6.926 -0.78,13.823 4.845,19.682 2.528,2.635 1.237,7.433 4.251,10.809 6.363,7.127 14.658,8.729 23.322,9.637 3.958,0.415 7.989,0.102 11.986,0.178 5.553,0.104 7.112,-1.993 4.537,-6.87 -7.355,-13.928 -11.229,-28.916 -11.829,-44.435 -0.219,-5.649 0.669,-11.798 2.06,-17.685 1.669,-7.059 5.253,-13.523 5.418,-21.127 0.119,-5.485 5.521,-8.884 8.375,-13.329 2.65,-4.125 6.426,-7.361 8.342,-12.221 1.12,-2.839 4.224,-5.118 6.85,-7.097 C 5.139,5.465 5.374,5.449 0,0 m -568.693,126.727 c -2.743,-8.204 0.554,-17.329 -2.998,-25.564 -5.226,-12.117 -5.879,-25.443 -11.202,-37.768 -6.924,-16.033 -14.712,-31.532 -22.393,-47.163 -4.124,-8.392 -8.864,-16.194 -14.213,-23.714 -1.401,-1.97 -2.497,-5.636 -5.758,-4.598 -3.79,1.208 -1.988,5.082 -2.723,9.009 4.285,8.768 -0.256,20.029 5.4,29.905 1.817,3.173 1.457,7.755 1.574,11.707 0.35,11.8 5.677,22.337 8.883,33.302 7.414,25.349 18.101,49.442 34.116,70.805 0.792,1.055 1.421,2.35 2.446,3.089 2.237,1.612 5.007,1.693 5.382,-1.42 0.7,-5.806 3.601,-11.266 1.486,-17.59 m -68.815,59.319 c -6.264,-0.676 -12.635,-0.365 -18.959,-0.463 -1.999,-0.031 -3.999,-0.005 -8.379,-0.005 -13.737,-0.664 -29.513,1.52 -45.062,5.637 -17.467,4.625 -23.756,18.044 -16.143,34.471 0.56,1.207 1.242,2.358 1.798,3.567 6.255,13.612 16.972,17.608 31.597,11.404 22.65,-9.607 41.79,-24.584 57.557,-43.638 0.635,-0.768 1.299,-1.542 1.774,-2.409 2.456,-4.475 1.051,-7.998 -4.183,-8.564 m -71.984,193.571 c 2.091,1.342 23.235,6.644 29.021,7.753 11.131,2.135 22.364,3.423 33.733,2.873 2.935,-0.142 6.42,0.454 8.019,-2.767 1.685,-3.394 -0.071,-6.517 -2.129,-9.229 -7.485,-9.865 -36.602,-33.709 -41.167,-38.631 -0.253,-0.451 -0.627,-0.748 -1.123,-0.892 -12.73,-14.78 -29.053,-14.219 -39.403,1.655 -3.583,5.495 -6.863,11.323 -6.739,18.356 0.192,10.871 6.746,15.719 19.788,20.882 M -966.846,214.142 c -2.003,-4.443 -5.878,-6.285 -10.28,-7.394 -3.783,-5.305 -9.788,-3.018 -14.704,-3.959 -13.136,-2.517 -26.384,-1.809 -39.469,0.941 -6.176,1.299 -8.1,4.19 -4.867,8.844 6.34,9.125 14.592,16.934 24.611,22.754 2.111,2.612 8.191,9.027 10.698,8.539 0.946,0.483 1.358,3.366 2.304,3.849 4.793,4.007 9.811,6.302 15.687,2.056 3.917,-0.965 7.068,-3.013 9.208,-6.496 2.361,-0.593 3.533,-1.989 3.042,-4.506 0.386,-1.068 0.773,-2.135 1.159,-3.202 2.177,-0.964 3.334,-2.383 2.161,-4.842 0.262,-1.249 0.525,-2.498 0.787,-3.747 3.47,-4.373 3.326,-8.652 -0.337,-12.837 m -90.326,148.569 c -2.97,2.964 -7.405,6.054 -5.318,10.818 1.824,4.164 6.81,3.456 10.739,3.581 19.575,0.619 39.17,1.859 58.552,-2.542 5.24,-1.19 10.192,-2.833 14.952,-5.348 9.601,-5.074 13.228,-11.18 12.107,-21.715 -0.836,-7.861 -4.361,-14.706 -9.603,-20.401 -3.574,-3.882 -7.906,-7.4 -14.028,-5.193 -1.305,0.007 -2.61,0.015 -3.916,0.022 -7.27,-1.207 -12.773,3.323 -18.33,6.456 -16.575,9.347 -31.657,20.855 -45.155,34.322 m -510.976,13.163 c -5.637,-15.957 -11.318,-31.928 -19.8,-46.715 -4.825,-8.411 -10.078,-16.442 -17.473,-22.851 -2.256,-1.956 -4.56,-3.948 -7.49,-4.825 -4.545,-1.362 -7.064,0.27 -7.166,5.019 -0.099,4.616 -0.116,9.201 1.185,13.825 5.394,19.168 10.453,38.38 17.096,57.233 6.428,18.245 15.516,34.246 29.327,47.655 1.19,1.156 2.264,2.512 3.642,3.376 3.833,2.403 7.118,0.89 7.868,-3.737 0.476,-2.937 0.383,-5.967 0.623,-10.4 -1.477,-12.128 -3.254,-25.678 -7.812,-38.58 M 468.805,6.567 c -1.212,3.75 -0.13,7.811 -2.397,11.578 -4.081,6.78 -7.17,14.219 -12.741,19.991 -12.376,12.824 -23.758,27.375 -44.216,27.097 -2.557,-0.035 -4.766,0.946 -4.909,3.845 -0.246,4.965 -1.735,10.485 0.728,14.762 3.274,5.688 2.352,11.51 3.092,17.355 1.106,8.732 -4.316,15.824 -5.158,24.004 -0.655,6.353 -3.423,11.86 -6.161,17.623 -3.378,7.112 -8.497,12.65 -13.094,18.656 -9.657,12.616 -18.54,25.844 -29.941,37.113 -4.415,4.365 -9.424,9.436 -10.941,15.054 -1.473,5.459 -4.027,9.658 -7.082,13.865 -5.069,6.981 -10.43,13.75 -15.651,20.622 0,0 -20.622,22.08 -71.522,68.489 -50.899,46.408 -82.629,43.027 -118.558,37.858 -35.929,-5.168 -75.718,-44.832 -75.718,-44.832 0,0 -36.022,22.493 -95.19,19.416 -62.747,-3.263 -106.352,-22.396 -148.993,-44.466 -6.634,-4.34 -13.195,-8.799 -19.926,-12.983 -5.368,-3.338 -6.176,-3.164 -8.262,3.283 -5.037,15.567 -13.767,28.724 -25.723,39.662 -5.846,5.348 -12.485,9.83 -18.765,14.704 -4.668,0.141 -8.076,3.086 -12.397,4.925 2.31,3.19 4.888,4.931 7.882,6.147 15.193,11.737 28.976,24.999 35.8,43.263 7.817,20.923 13.2,42.243 7.565,65.224 -4.341,17.703 -9.735,34.343 -21.971,48.394 -14.844,17.044 -32.29,29.544 -54.713,34.336 -7.779,1.662 -15.547,3.375 -23.321,5.065 -16.978,-0.391 -33.157,-4.81 -49.203,-9.836 -4.432,-1.389 -8.346,-3.865 -12.092,-6.584 -2.917,-2.117 -5.606,-4.639 -9.357,-5.279 -4.673,-7.331 -12.739,-11.21 -17.948,-18.19 -16.491,-22.1 -23.111,-47.128 -23.548,-74.214 -0.026,-1.646 -0.075,-3.291 -0.113,-4.937 0.238,-6.739 0.578,-9.913 2.857,-18.883 1.779,-7.006 3.572,-9.645 5.652,-14.653 11.99,-22.817 28.756,-40.879 52.134,-51.845 0.186,-3.231 -2.02,-3.555 -3.826,-4.209 -7.523,-2.721 -14.414,-6.675 -21.231,-10.777 -8.608,-5.18 -8.621,-5.2 -16.023,1.441 -1.214,1.09 -2.231,2.4 -3.34,3.608 -6.093,3.955 -12.263,7.799 -18.267,11.887 -15.63,10.643 -33.563,15.52 -51.369,20.746 -3.172,0.931 -6.311,1.974 -9.465,2.965 -2.714,-0.237 -5.299,0.355 -7.845,1.207 -18.469,3.096 -36.642,-0.525 -54.891,-2.42 -1.709,-0.313 -3.418,-0.626 -5.127,-0.939 -10.527,-2.371 -21.053,-4.742 -31.645,-7.128 -0.074,0.89 -0.258,1.36 -0.106,1.531 21.564,23.589 13.817,46.073 14.018,47.039 -0.246,1.432 -0.763,7.853 -2.136,11.001 -1.373,3.149 -1.707,4.525 -4.46,6.739 -1.709,2.049 -3.417,4.097 -5.126,6.145 -14.716,14.749 -33.711,15.417 -52.759,16.229 -14.13,0.602 -27.815,-2.514 -41.657,-4.334 -4.945,-0.651 -9.814,-1.862 -14.742,-2.674 -10.878,-1.794 -14.913,1.549 -15.142,12.388 -0.231,10.989 -0.032,22.008 -0.816,32.958 -1.321,18.472 -6.157,35.962 -15.752,52.061 -7.737,12.983 -18.793,18.536 -33.886,18.925 -16.217,0.419 -29.154,-5.221 -40.181,-16.552 -6.776,-6.962 -12.5,-14.683 -17.622,-22.916 -4.572,-7.35 -9.426,-14.524 -14.109,-21.806 -5.969,-9.28 -14.896,-12.05 -25.144,-10.62 -8.35,1.165 -15.61,4.824 -22.14,10.629 -13.901,12.355 -28.263,24.203 -42.673,35.969 -4.863,3.97 -10.476,6.89 -16.426,9.253 -27.955,11.098 -59.236,-10.959 -58.228,-41.312 0.451,-13.562 3.665,-26.181 8.146,-38.71 0.448,-1.253 1.022,-2.462 1.474,-3.714 7.271,-20.146 -2.689,-34.812 -24.007,-35.11 -9.994,-0.14 -20,-0.083 -29.987,0.275 -11.038,0.396 -21.93,-1.579 -32.785,-2.63 -8.298,-0.803 -13.972,-8.608 -17.165,-16.408 -6.706,-16.381 -4.351,-31.846 6.327,-46.029 8.49,-11.279 19.072,-20.402 30.018,-29.128 7.535,-6.006 15.114,-11.922 23.091,-17.402 14.168,-9.733 14.178,-27.327 0.498,-37.88 -4.466,-3.446 -9.723,-5.947 -13.87,-9.705 -4.169,-3.779 -6.758,-2.621 -9.897,0.932 -11.487,13.002 -24.481,24.49 -36.879,36.582 -8.118,7.917 -17.532,14.251 -25.64,22.129 -5.617,1.629 -9.286,6.204 -13.771,9.451 -18.151,13.143 -38.193,21.526 -60.165,25.514 -4.988,-0.103 -9.999,-0.553 -14.962,-0.246 -16.949,1.047 -33.085,-2.109 -48.727,-8.503 -3.329,-1.36 -6.572,-3.37 -10.442,-2.978 -0.836,-0.535 -1.609,-1.233 -2.517,-1.579 -25.038,-9.532 -41.783,-28.505 -56.709,-49.593 -2.098,-2.965 -4.588,-5.652 -6.897,-8.468 -0.066,-0.325 -0.03,-0.728 -0.211,-0.966 -21.743,-28.64 -26.054,-61.993 -25.104,-96.384 0.333,-12.052 -2.32,-19.954 -13.281,-26.871 -13.732,-8.665 -24.408,-21.391 -33.519,-35.09 -3.53,-5.307 -3.665,-5.217 -9.01,0.458 -11.029,6.782 -20.634,15.437 -30.828,23.321 -4.419,3.418 -3.334,6.205 -0.208,9.776 8.07,9.219 15.898,18.649 23.791,28.021 1.268,1.506 2.37,3.151 3.549,4.731 20.253,25.075 38.058,51.734 52.221,80.743 4.524,9.267 58.774,93.034 39.449,221.97 -3.158,21.071 -7.705,40.291 -18.02,58.443 -5.248,9.237 -10.519,18.461 -15.779,27.691 -5.8,4.497 -10.565,10.039 -15.211,15.649 -9.528,11.508 -20.433,21.6 -31.651,31.388 -2.432,1.042 -5.141,1.691 -7.251,3.186 -19.191,13.591 -40.963,21.8 -62.604,30.297 -17.91,4.43 -36.109,5.225 -54.469,4.734 -54.469,4.733 -118.7,-40.282 -118.7,-40.282 -7.741,-4.917 -16.539,-8.158 -23.346,-14.84 -6.593,-6.473 -13.733,-12.722 -21.587,-17.504 -13.643,-8.306 -24.066,-19.497 -33.128,-32.288 -2.494,-3.521 -5.077,-6.979 -7.516,-10.536 -2.272,-3.313 -5.303,-4.704 -9.326,-4.696 -21.557,0.045 -40.813,-7.351 -59.427,-17.647 -21.066,-11.653 -37.785,-26.718 -45.495,-50.344 -4.933,-15.116 -10.688,-29.786 -11.219,-46.177 -0.64,-19.754 3.08,-39.008 4.719,-58.481 0.485,-5.767 0.795,-11.959 3.321,-17.519 1.617,-15.805 3.4,-31.576 4.523,-47.448 0.73,-10.327 4.963,-20.496 6.364,-31.047 1.349,-10.165 2.9,-20.261 3.569,-30.54 0.752,-11.528 2.965,-22.961 4.559,-34.434 0.364,-2.618 1.212,-5.24 1.133,-7.838 -0.657,-21.47 4.601,-42.032 9.103,-62.757 4.146,-19.089 9.716,-37.904 11.577,-57.455 2.386,-0.221 43.056,-168.492 47.737,-183.213 3.194,-10.047 6.36,-20.489 11.838,-29.33 7.847,-12.662 17.781,-24.122 29.282,-33.778 8.062,-6.77 15.816,-14.119 26.259,-17.66 14.634,-4.961 46.937,-11.542 79.814,-2.302 6.554,2.319 28.104,12.394 38.952,24.075 13.19,15.014 21.545,31.37 23.047,39.745 1.68,9.362 3.124,18.735 5.696,28.004 1.29,4.648 1.189,26.4 -1.451,43.998 -2.402,5.599 -1.467,11.852 -3.575,17.514 -0.459,1.233 -0.121,2.758 1.051,3.577 1.295,0.906 2.728,0.231 3.563,-0.763 8.7,-10.351 21.329,-15.719 31.155,-24.697 8.071,-7.374 199.757,-147.484 255.949,-143.313 8.593,-2.529 45.924,-1.836 50.248,-1.879 6.925,-0.067 13.452,-0.633 20.328,-3.177 8.521,-3.153 18.135,-4.205 27.328,-4.484 12.565,-0.381 25.131,-0.818 37.82,0.882 11.249,1.507 21.405,6.512 32.517,7.889 13.714,1.698 84.986,43.598 97.111,51.53 8.276,5.413 15.393,12.572 23.226,18.698 4.819,3.77 9.794,1.963 11.153,-3.953 0.585,-2.546 0.255,-5.303 0.332,-7.964 0.144,-4.968 0.526,-9.862 1.235,-14.833 1.434,-10.044 0.307,-20.453 4.654,-30.085 0.376,-0.833 0.055,-1.977 0.074,-2.976 0.11,-5.965 -0.501,-11.958 1.635,-17.791 0.779,-2.126 0.986,-4.861 -1.07,-6.527 -2.41,-1.951 -5.276,-1.138 -7.437,0.464 -5.881,4.361 -12.951,4.708 -19.65,6.336 -1.603,0.389 -3.373,0.377 -4.824,1.063 -15.265,7.213 -31.169,6.361 -46.666,2.151 -7.303,-1.984 -14.35,-4.713 -21.993,-5.334 -1.611,-0.131 -3.5,-0.481 -4.702,-1.433 -8.546,-6.77 -18.496,-11.497 -26.731,-18.762 -3.717,-3.279 -3.954,-8.527 -7.551,-11.537 -11.295,-9.453 -13.715,-23.384 -16.481,-36.229 -4.269,-19.824 -3.06,-40.134 -1.195,-60.445 0.858,-9.334 3.755,-17.979 5.288,-27.007 0.939,-5.536 0.71,-11.237 2.491,-16.68 5.217,-15.943 24.814,-76.773 30.887,-90.602 9.296,-21.168 23.541,-39.667 36.814,-58.539 11.16,-15.867 25.608,-28.526 42.011,-38.889 5.856,-3.699 11.227,-8.003 17.546,-11.188 7.275,-3.666 15.339,-4.363 22.407,-7.492 11.953,-5.293 24.569,-5.556 36.897,-6.623 19.962,-1.729 39.446,2.998 58.391,8.994 13.594,4.302 26.159,10.644 37.088,20.381 4.771,4.25 9.47,9.207 16.11,11.437 3.34,1.121 6.325,4.295 7.627,7.608 1.656,4.214 4.485,7.246 7.215,10.59 5.239,6.418 10.84,12.704 15.014,19.796 11.471,19.49 18.273,40.82 23.31,62.789 1.557,6.787 1.805,14.276 4.532,20.263 5.622,12.343 5.355,25.735 8.164,38.418 2.779,12.544 2.32,26.325 2.743,39.573 0.521,16.309 -0.425,32.67 0.279,48.965 0.699,16.158 -8.45,90.558 -8.088,104.177 0.09,3.409 -1.82,7.982 2.445,9.867 4.131,1.826 7.58,-1.195 10.763,-3.631 1.051,-0.805 1.892,-1.88 2.904,-2.744 7.956,-6.795 17.625,-11.044 27.118,-14.29 11.403,-3.899 23.692,-5.329 35.551,-8.192 20.014,-4.83 40.566,-4.026 61.012,-0.722 4.488,0.726 7.749,3.651 12.094,4.215 11.466,1.489 22.654,3.839 33.674,7.763 12.594,4.485 24.458,9.987 35.314,17.719 2.701,1.924 5.222,4.149 8.078,5.802 16.66,9.644 31.398,21.95 45.509,34.763 11.19,10.162 22.498,20.381 30.69,33.713 6.524,10.617 15.776,19.517 21.848,30.614 1.275,2.33 2.536,4.717 4.874,6.229 4.65,3.008 9.114,1.341 10.044,-4.15 1.593,-9.402 3.561,-18.714 6.328,-27.824 3.648,-12.01 7.022,-24.157 11.616,-35.811 4.733,-12.006 13.557,-21.823 19.814,-33.073 0.93,-1.673 2.541,-3.582 4.233,-4.108 6.65,-2.067 10.693,-7.74 16.348,-11.164 8.238,-4.987 16.621,-9.235 26.352,-10.468 4.911,-0.622 10.275,-0.907 14.461,-3.155 4.803,-2.58 9.475,-2.715 14.431,-2.72 5.914,-0.007 11.378,0.608 17.23,3.08 7.45,3.147 16.369,2.631 24.193,5.136 7.306,2.34 14.852,3.728 21.575,8.789 11.541,8.688 22.201,17.829 29.808,30.22 0.51,0.832 1.359,1.459 2.069,2.163 6.188,6.127 8.745,6.289 14.987,0.115 5.67,-5.609 11.193,-11.233 18.688,-14.557 2.658,-1.179 4.83,-3.461 7.204,-5.264 3.964,-3.01 7.671,-6.438 11.908,-8.99 17.441,-10.508 37.028,-15.525 56.457,-20.38 18.75,-4.686 38.137,-5.596 57.426,-4.241 10.533,0.741 21.362,1.716 31.33,4.878 11.861,3.762 24.139,6.109 35.69,11.155 12.75,5.569 25.662,10.567 37.214,18.555 11.424,7.9 23.036,15.503 33.42,24.808 3.931,3.522 9.424,4.089 12.883,0.989 47.709,-49.737 118.338,-45.637 134.338,-42.772 10.097,1.808 19.826,4.783 29.703,7.263 41.143,14.891 90.492,36.095 121.987,64.138 17.595,15.721 35.124,31.6 51.413,48.764 8.658,9.123 15.17,19.821 18.384,31.446 5.23,18.919 7.361,38.491 1.083,57.913" /></g><g
           transform="translate(343.6673,3105.3694)"
           id="g26"><path
             id="path28"
             style="fill:#ff92d3;fill-opacity:1;fill-rule:nonzero;stroke:none"
             d="M 0,0 C 0.761,-0.31 1.522,-0.619 2.281,-0.924 1.519,-0.613 0.76,-0.306 0,0" /></g><g
           transform="translate(328.0059,3187.0273)"
           id="g30"><path
             id="path32"
             style="fill:#ff92d3;fill-opacity:1;fill-rule:nonzero;stroke:none"
             d="M 0,0 C -0.631,-0.456 -1.262,-0.912 -1.892,-1.368 -1.261,-0.912 -0.63,-0.456 0,0" /></g><g
           transform="translate(991.8373,2996.8789)"
           id="g34"><path
             id="path36"
             style="fill:#fefefd;fill-opacity:1;fill-rule:nonzero;stroke:none"
             d="m 0,0 c -0.396,10.678 0.699,21.292 1.469,31.916 0.144,1.98 0.286,4.022 0.876,5.894 1.142,3.62 3.664,4.739 6.904,2.566 2.188,-1.468 4.278,-3.248 5.97,-5.26 12.632,-15.023 25.767,-29.651 36.793,-45.955 1.292,-1.911 2.552,-3.93 3.332,-6.078 1.034,-2.845 0.173,-5.308 -2.821,-6.539 -2.152,-0.885 -4.364,-1.648 -6.595,-2.307 -11.618,-3.432 -23.739,-2.94 -35.616,-4.23 C 2.688,-30.821 0.243,-27.762 0.037,-19.981 -0.14,-13.325 0,-6.661 0,0" /></g><g
           transform="translate(2375.4846,3001.4158)"
           id="g38"><path
             id="path40"
             style="fill:#fefefd;fill-opacity:1;fill-rule:nonzero;stroke:none"
             d="m 0,0 c 1.219,13.222 2.022,26.499 3.787,39.647 1.435,10.7 6.43,12.376 14.393,4.874 C 28.371,34.922 36.213,23.26 44.614,12.137 49.213,6.047 53.467,-0.357 57.317,-6.946 62.434,-15.701 59.765,-21.065 49.643,-22.022 38.397,-23.085 27.085,-23.724 15.791,-23.923 2.587,-24.156 0.377,-21.587 0.317,-8.018 0.305,-5.357 0.315,-2.698 0.315,-0.037 0.21,-0.025 0.105,-0.012 0,0" /></g></g></g><g
       id="g42"><g
         id="g44"><g
           id="g50"><g
             id="g52"><path
               id="path62"
               style="fill:url(#linearGradient60);stroke:none"
               d="m 1867.156,3133.421 c -22.992,-5.721 -36.025,-19.925 -36.892,-43.304 v 0 c -1.16,-31.264 -3.763,-62.493 -2.87,-93.829 v 0 c 0.897,-48.251 2.18,-96.446 7.754,-144.502 v 0 c 3.84,-33.097 8.151,-66.011 16.831,-98.208 v 0 c 3.808,-14.122 7.756,-28.3 15.696,-40.847 v 0 c 5.31,-8.391 12.381,-14.006 22.368,-17.066 v 0 c 16.535,-5.065 32.503,-3.046 48.1,2.105 v 0 c 14.587,4.817 26.948,18.253 22.167,39.413 v 0 c -0.733,3.239 -1.756,6.413 -2.641,9.62 v 0 c -2.745,9.935 -5.894,19.78 -8.155,29.824 v 0 c -7.237,32.149 -11.241,64.815 -15.546,97.457 v 0 c -5.106,38.714 -6.597,77.57 -6.744,116.526 v 0 c -0.042,11.305 0.676,22.614 1.112,33.918 v 0 c 0.512,13.299 0.299,26.603 1.745,39.895 v 0 c 1.006,9.232 0.836,18.64 0.565,27.95 v 0 c -0.45,15.471 -7.041,27.67 -21.09,34.905 v 0 c -9.393,4.836 -19.054,7.781 -29.247,7.781 v 0 c -4.284,0 -8.661,-0.52 -13.153,-1.638" /></g></g></g></g><g
       id="g64"><g
         id="g66"><g
           id="g72"><g
             id="g74"><path
               id="path84"
               style="fill:url(#linearGradient82);stroke:none"
               d="m 1157.226,3232.245 c -3.928,-0.124 -8.914,0.584 -10.738,-3.58 v 0 c -2.087,-4.764 2.348,-7.854 5.319,-10.817 v 0 c 13.497,-13.468 29.367,-23.697 45.153,-34.322 v 0 c 14.421,-9.707 27.054,-11.477 36.274,-1.285 v 0 c 5.193,5.739 8.768,12.539 9.603,20.4 v 0 c 1.121,10.536 -2.505,16.641 -12.106,21.716 v 0 c -4.76,2.514 -9.712,4.158 -14.953,5.347 v 0 c -11.069,2.513 -22.209,3.187 -33.373,3.187 v 0 c -8.385,0 -16.783,-0.38 -25.179,-0.646" /></g></g></g></g><g
       id="g86"><g
         id="g88"><g
           id="g94"><g
             id="g96"><path
               id="path106"
               style="fill:url(#linearGradient104);stroke:none"
               d="m 1484.725,3084.389 c -0.556,-1.209 -1.239,-2.36 -1.798,-3.567 v 0 c -7.613,-16.427 -1.325,-29.845 16.143,-34.471 v 0 c 15.548,-4.117 31.325,-6.301 45.061,-5.637 v 0 c 4.38,0 6.381,-0.026 8.379,0.01 v 0 c 1.851,0.028 3.706,0.022 5.562,0.015 v 0 c 4.483,-0.015 8.968,-0.03 13.397,0.449 v 0 c 5.234,0.564 6.64,4.088 4.184,8.563 v 0 c -0.476,0.867 -1.139,1.642 -1.774,2.41 v 0 c -15.768,19.053 -34.907,34.029 -57.558,43.637 v 0 c -4.486,1.904 -8.606,2.847 -12.341,2.847 v 0 c -8.44,0 -14.919,-4.815 -19.255,-14.251" /></g></g></g></g><g
       id="g108"><g
         id="g110"><g
           id="g116"><g
             id="g118"><path
               id="path128"
               style="fill:url(#linearGradient126);stroke:none"
               d="m 1432.834,3356.24 c -0.774,-0.623 -1.45,-1.368 -2.189,-2.039 v 0 c -14.223,-12.903 -24.582,-28.768 -34.248,-45.106 v 0 c -17.826,-30.135 5.374,-37.548 9.357,-39.47 v 0 c 17.427,-8.404 29.183,-3.323 34.201,15.111 v 0 c 5.035,18.493 5.405,37.441 3.839,56.424 v 0 c -0.352,4.272 -1.545,8.506 -2.648,12.678 v 0 c -0.868,3.277 -1.93,4.84 -3.585,4.84 v 0 c -1.208,0 -2.732,-0.832 -4.727,-2.438" /></g></g></g></g><g
       id="g130"><g
         id="g132"><g
           id="g138"><g
             id="g140"><path
               id="path150"
               style="fill:url(#linearGradient148);stroke:none"
               d="m 2342.761,3143.481 c -20.429,-6.677 -34.231,-21.211 -43.557,-40.22 v 0 c -8.767,-17.869 -12.085,-37.274 -15.465,-56.595 v 0 c -2.999,-17.137 -2.067,-34.525 -2.136,-51.827 v 0 c -0.073,-18.36 -0.037,-18.196 -17.784,-21.678 v 0 c -12.121,-2.378 -23.662,-6.929 -29.235,-18.723 v 0 c -10.044,-21.258 -1.648,-46.976 21.061,-55.703 v 0 c 7.769,-2.986 15.702,-5.73 24.12,-6.129 v 0 c 4.693,-0.223 6.941,-2.161 8.301,-6.798 v 0 c 3.2,-10.904 4.642,-22.154 7.247,-33.168 v 0 c 1.283,-5.421 -0.558,-8.024 -6.896,-8.373 v 0 c -13.406,-0.738 -23.055,-7.934 -31.677,-17.038 v 0 c -8.943,-9.444 -18.081,-18.711 -28.199,-26.841 v 0 c -15.065,-12.104 -30.499,-23.973 -48.978,-30.441 v 0 c -21.746,-7.611 -41.001,-2.552 -54.74,14.685 v 0 c -9.912,12.437 -16.528,26.456 -21.76,41.313 v 0 c -9.223,26.174 -16.092,52.901 -17.732,80.672 v 0 c -1.511,25.589 -2.464,51.185 5.438,76.219 v 0 c 9.416,29.831 29.116,48.422 59.262,56.463 v 0 c 11.665,3.11 23.634,3.797 35.477,5.418 v 0 c 9.166,1.255 16.456,5.514 21.987,12.439 v 0 c 9.745,12.2 11.908,25.398 4.921,40.074 v 0 c -6.391,13.423 -15.92,21.356 -31.015,23.312 v 0 c -9.783,1.266 -19.278,-0.374 -28.887,-0.626 v 0 c -28.837,-0.754 -56.066,-8.521 -80.741,-23.079 v 0 c -34.225,-20.193 -57.204,-50.595 -71.57,-87.144 v 0 c -14.725,-37.463 -18.913,-76.732 -15.945,-116.761 v 0 c 0.456,-6.158 0.352,-12.609 3.875,-18.191 v 0 c -10e-4,0 -10e-4,0 -10e-4,0 v 0 c -0.573,-2.894 -0.386,-5.705 0.889,-8.401 v 0 c -1.441,-7.567 2.135,-14.275 3.85,-21.245 v 0 c 8.98,-36.504 23.76,-70.239 46.649,-100.441 v 0 c 32.523,-42.915 76.183,-60.063 128.76,-57.35 v 0 c 5.398,0.279 24.683,3.791 27.524,4.685 v 0 c 18.475,5.814 36.205,13.325 52.941,23.149 v 0 c 23.492,13.789 42.932,32.498 62.388,51.178 v 0 c 10.909,10.474 11.234,10.563 19.83,-1.772 v 0 c 10.341,-14.837 22.001,-28.41 36.757,-39.12 v 0 c 20.673,-15.005 44.13,-22.361 69.27,-21.835 v 0 c 26.732,0.56 51.652,9.522 74.599,23.034 v 0 c 27.064,15.934 51.521,35.486 74.536,56.792 v 0 c 10.017,9.273 19.975,18.685 29.153,28.767 v 0 c 11.172,12.276 12.754,28.299 5.174,40.615 v 0 c -11.257,18.287 -36.332,25.099 -55.401,15.054 v 0 c -5.935,-3.126 -11.23,-7.186 -16.21,-11.599 v 0 c -20.941,-18.565 -43.09,-35.638 -65.041,-52.959 v 0 c -6.047,-4.771 -12.508,-8.958 -19.564,-11.947 v 0 c -27.687,-11.733 -40.215,-4.492 -50.256,16.399 v 0 c -11.865,24.685 -21.553,50.112 -27.001,77.028 v 0 c -0.526,2.593 -0.666,5.28 -0.801,7.933 v 0 c -0.173,3.412 1.31,5.808 4.792,6.571 v 0 c 2.595,0.568 5.215,1.276 7.845,1.387 v 0 c 34.614,1.461 68.981,5.877 103.475,8.744 v 0 c 16.568,1.378 32.964,4.982 46.854,15.407 v 0 c 14.783,11.094 19.197,27.433 12.002,44.311 v 0 c -2.768,6.498 -6.436,12.426 -10.815,17.899 v 0 c -25.984,32.475 -52.447,64.564 -77.872,97.488 v 0 c -15.615,20.22 -34.866,36.618 -56.009,50.73 v 0 c -13.851,9.245 -28.446,13.38 -43.456,13.381 v 0 c -9.927,0 -20.033,-1.808 -30.233,-5.142 m 32.715,-150.33 c -0.012,2.66 0,5.32 0,7.981 v 0 c -0.105,0.012 -0.21,0.024 -0.315,0.037 v 0 c 1.218,13.222 2.023,26.498 3.786,39.647 v 0 c 1.436,10.7 6.431,12.376 14.395,4.874 v 0 c 10.19,-9.6 18.032,-21.261 26.433,-32.384 v 0 c 4.599,-6.091 8.853,-12.494 12.703,-19.083 v 0 c 5.117,-8.755 2.448,-14.12 -7.674,-15.076 v 0 c -11.246,-1.063 -22.557,-1.702 -33.851,-1.902 v 0 c -0.518,-0.01 -1.02,-0.014 -1.504,-0.014 v 0 c -11.872,0 -13.914,2.883 -13.971,15.92 m -364.267,25.201 c -0.316,-0.029 -0.614,-0.073 -0.893,-0.136 v 0 c 0.279,0.063 0.577,0.107 0.893,0.136 m 240.437,-54.213 -4,-3.603 c 0.71,1.777 2.082,2.927 4,3.603 m -7.154,-6.445 -2.376,-2.141 c 0.56,0.944 1.358,1.651 2.376,2.141 m 296.803,-29.438 c 1.968,0.703 3.934,1.408 5.901,2.112 v 0 c -1.967,-0.704 -3.933,-1.409 -5.9,-2.113 v 0 c -2.385,-4.522 -6.129,-5.956 -10.174,-6.702 v 0 c 4.045,0.746 7.789,2.181 10.173,6.703 m -314.004,-217.794 v 0 c -0.63,-0.11 -1.264,-0.185 -1.903,-0.226 v 0 c 0.639,0.041 1.272,0.116 1.903,0.227" /></g></g></g></g><g
       id="g152"><g
         id="g154"><g
           id="g160"><g
             id="g162"><path
               id="path172"
               style="fill:url(#linearGradient170);stroke:none"
               d="m 1329.367,2986.123 c -20.91,-0.641 -35.515,-12.643 -41.623,-32.598 v 0 c -8.608,-28.129 -8.927,-57.141 -9.185,-86.051 v 0 c -0.174,-19.604 1.785,-39.222 2.611,-58.841 v 0 c 1.316,-31.285 5.404,-62.301 8.789,-93.387 v 0 c 2.23,-20.486 5.039,-40.943 6.835,-61.43 v 0 c 1.976,-22.529 5.091,-44.924 6.975,-67.467 v 0 c 1.996,-23.882 4.706,-47.667 4.288,-63.191 v 0 c -0.248,-27.113 0.166,-45.731 -2.815,-64.261 v 0 c -2.279,-14.166 -4.85,-28.218 -10.223,-41.55 v 0 c -1.666,-4.133 -2.732,-9.97 -7.978,-10.687 v 0 c -5.893,-0.803 -8.041,5.092 -10.786,9.014 v 0 c -20.642,29.493 -32.078,62.545 -37.495,97.889 v 0 c -2.225,14.517 -1.971,29.221 -3.419,43.799 v 0 c -2.041,20.542 -11.831,31.721 -31.462,37.642 v 0 c -14.513,4.377 -28.533,2.801 -42.087,-2.231 v 0 c -12.241,-4.545 -20.103,-13.845 -22.514,-27.14 v 0 c -3.563,-19.655 -0.882,-39.249 1.599,-58.639 v 0 c 2.532,-19.778 8.023,-39.006 13.859,-58.177 v 0 c 9.011,-29.6 22.303,-56.923 39.295,-82.589 v 0 c 8.678,-13.108 18.782,-25.045 30.861,-35.162 v 0 c 19.354,-16.208 41.662,-22.168 66.852,-20.939 v 0 c 32.629,1.591 58.101,15.598 77.249,41.338 v 0 c 18.116,24.351 26.161,52.895 31.774,82.149 v 0 c 6.751,35.176 6.867,70.822 6.387,106.459 v 0 c -0.184,13.646 -0.066,27.353 -1.323,40.918 v 0 c -2.702,29.13 -5.241,58.274 -9.148,87.298 v 0 c -3.77,28.013 -6.515,56.168 -9.816,84.249 v 0 c -3.609,30.691 -7.273,61.372 -8.752,92.338 v 0 c -1.343,28.1 -0.899,55.799 4.836,83.364 v 0 c 0.945,4.539 1.078,9.242 1.772,13.839 v 0 c 2.536,16.796 -5.979,27.709 -18.864,36.705 v 0 c -9.071,6.333 -19.08,7.476 -29.271,7.476 v 0 c -2.401,0 -4.81,-0.063 -7.221,-0.137 m -42.373,-131.816 c -0.834,0.871 -1.388,1.873 -1.634,2.974 v 0 c 0.246,-1.101 0.8,-2.103 1.637,-2.973 v 0 c 0.403,-2.04 0.898,-4.067 1.223,-6.117 v 0 c -0.325,2.05 -0.821,4.077 -1.226,6.116" /></g></g></g></g><g
       id="g174"><g
         id="g176"><g
           id="g182"><g
             id="g184"><path
               id="path194"
               style="fill:url(#linearGradient192);stroke:none"
               d="m 1599.543,3145.221 c -13.497,-3.739 -26.345,-9.244 -37.974,-17.212 v 0 c -5.195,-3.56 -5.354,-4.794 -1.11,-9.245 v 0 c 5.506,-5.776 56.704,-58.473 56.704,-58.473 v 0 c 0,0 5.917,3.381 8.331,4.504 v 0 c 24.238,11.278 46.04,4.128 58.546,-18.793 v 0 c 7.861,-14.409 10.629,-29.974 11.211,-46.106 v 0 c 1.034,-28.649 -5.608,-56.078 -13.336,-83.325 v 0 c -9.809,-34.584 -25.903,-66.218 -45.133,-96.421 v 0 c -8.985,-14.114 -18.861,-27.431 -31.279,-38.729 v 0 c -9.006,-8.194 -18.884,-14.641 -31.289,-16.62 v 0 c -16.918,-2.699 -31.108,4.903 -38.121,20.463 v 0 c -6.28,13.931 -8.648,28.669 -9.07,43.71 v 0 c -0.663,23.746 3.109,47.05 7.618,70.297 v 0 c 6.04,31.133 14.648,61.409 27.955,90.273 v 0 c 2.81,6.097 1.716,8.157 -4.9,7.872 v 0 c -20.084,-0.866 -39.834,2.061 -59.598,4.744 v 0 c -10.782,1.464 -21.581,3.292 -30.845,9.761 v 0 c -2.05,1.431 -3.869,0.857 -5.057,-1.122 v 0 c -1.018,-1.697 -1.692,-3.606 -2.446,-5.451 v 0 c -10.251,-25.057 -16.136,-51.253 -21.415,-77.734 v 0 c -6.033,-30.264 -7.726,-60.7 -6.821,-91.377 v 0 c 0.871,-29.557 6.338,-58.131 19.07,-85.085 v 0 c 8.694,-18.407 20.687,-34.218 37.088,-46.289 v 0 c 37.135,-27.329 78.228,-30.03 120.796,-16.92 v 0 c 41.314,12.724 73.871,39.042 102.19,70.807 v 0 c 16.02,17.968 28.4,38.557 40.182,59.484 v 0 c 14.287,25.376 24.884,52.181 31.526,80.533 v 0 c 4.931,21.054 9.149,42.163 11.162,63.807 v 0 c 2.237,24.05 3.648,48.265 -1.527,71.686 v 0 c -10.393,47.032 -24.522,70.58 -48.535,89.91 v 0 c -15.688,12.629 -33.021,21.689 -53.256,25.793 v 0 c -11.557,2.344 -23.005,3.425 -34.369,3.425 v 0 c -18.94,0 -37.655,-3.002 -56.298,-8.167" /></g></g></g></g><g
       id="g196"><g
         id="g198"><g
           id="g204"><g
             id="g206"><path
               id="path216"
               style="fill:url(#linearGradient214);stroke:none"
               d="m 1210.427,3102.851 c -0.948,-0.482 -7.257,-5.01 -15.092,-10.703 v 0 c -7.834,-5.694 -16.184,-15.313 -22.523,-24.437 v 0 c -3.233,-4.654 -1.309,-7.547 4.867,-8.845 v 0 c 13.084,-2.75 25.944,-3.692 39.225,-2.107 v 0 c 16.423,1.96 22.905,6.01 26.263,11.97 v 0 c 3.358,5.961 3.246,11.964 -2.923,23.277 v 0 c -6.168,11.314 -8.795,13.474 -13.643,15.173 v 0 c -1.173,0.412 -2.446,0.605 -3.769,0.606 v 0 c -4.142,0 -8.774,-1.897 -12.405,-4.934" /></g></g></g></g><g
       id="g218"><g
         id="g220"><g
           id="g226"><g
             id="g228"><path
               id="path238"
               style="fill:url(#linearGradient236);stroke:none"
               d="m 1243.382,3341.398 c -0.112,-2.319 -0.128,-4.678 0.159,-6.977 v 0 c 2.559,-20.574 7.53,-40.499 17.098,-59.006 v 0 c 1.879,-3.635 5.091,-8.409 7.335,-10.395 v 0 c 4.059,-3.593 6.029,-4.51 8.329,-5.625 v 0 c 9.178,-4.609 16.179,-0.879 22.729,3.125 v 0 c 10.528,6.438 19.15,19.313 10.17,32.888 v 0 c -1.28,1.934 -2.876,3.657 -4.241,5.539 v 0 c -12.994,17.91 -31.324,29.587 -49.082,41.914 v 0 c -1.878,1.304 -4.102,2.33 -6.317,2.874 v 0 c -0.683,0.168 -1.332,0.255 -1.935,0.255 v 0 c -2.42,0 -4.091,-1.403 -4.245,-4.592" /></g></g></g></g><g
       id="g240"><g
         id="g242"><g
           id="g248"><g
             id="g250"><path
               id="path260"
               style="fill:url(#linearGradient258);stroke:none"
               d="m 1528.506,3242.506 c -5.786,-1.109 -26.929,-6.411 -29.018,-7.756 v 0 c 0,0 -10e-4,0 -10e-4,0 v 0 c -12.543,-2.468 -19.597,-10.011 -19.789,-20.88 v 0 c -0.124,-7.034 3.156,-12.862 6.738,-18.357 v 0 c 10.351,-15.874 26.674,-16.435 39.402,-1.656 v 0 c 0.497,0.145 34.806,29.659 42.292,39.525 v 0 c 2.058,2.711 3.813,5.834 2.128,9.228 v 0 c -1.599,3.221 -5.083,2.625 -8.019,2.767 v 0 c -1.775,0.086 -3.55,0.127 -5.319,0.127 v 0 c -9.558,0 -19.021,-1.199 -28.414,-3 m -29.019,-7.754 c 0,0 0,0 0,0 v 0 c 0,0 0,0 0,0 v 0 c 0,0 0,0 0,0" /></g></g></g></g><g
       id="g262"><g
         id="g264"><g
           id="g270"><g
             id="g272"><path
               id="path282"
               style="fill:url(#linearGradient280);stroke:none"
               d="m 563.319,3399.395 c -8.359,-5.754 -17.977,-13.176 -25.461,-21.477 v 0 c -13.897,-15.416 -23.673,-33.593 -34.023,-51.387 v 0 c -5.555,-9.55 -7.179,-10.102 -17.652,-7.828 v 0 c -2.919,0.633 -5.874,1.106 -8.807,1.683 v 0 c -24.279,4.77 -44.3,-6.269 -53.606,-29.049 v 0 c -8.496,-20.798 -9.96,-42.504 -9.249,-64.549 v 0 c 0.847,-26.236 4.679,-52.208 7.437,-78.265 v 0 c 1.068,-10.096 31.856,-212.414 36.008,-236.33 v 0 c 3.069,-17.679 3.028,-35.674 6.687,-53.387 v 0 c 5.919,-28.661 11.502,-57.385 18.53,-85.803 v 0 c 2.159,-8.729 4.774,-17.361 8.969,-25.38 v 0 c 11.378,-21.747 27.833,-36.564 53.645,-37.265 v 0 c 31.231,-0.847 49.782,19.557 50.695,46.06 v 0 c 0.346,10.061 -0.384,19.962 -2.582,29.766 v 0 c -4.807,21.434 -9.846,42.82 -14.386,64.311 v 0 c -5.088,24.079 -9.839,48.232 -14.519,72.394 v 0 c -2.149,11.094 -3.981,22.259 -5.573,33.446 v 0 c -1.055,7.417 1.732,9.283 8.406,6.197 v 0 c 4.893,-2.262 9.096,-5.597 13.2,-8.972 v 0 c 20.826,-17.127 41.676,-34.23 62.278,-51.625 v 0 c 37.129,-31.347 74.126,-62.867 113.601,-91.272 v 0 c 29.443,-21.185 58.175,-43.384 89.518,-61.875 v 0 c 24.398,-14.395 48.74,-28.76 75.595,-38.273 v 0 c 22.061,-7.816 44.478,-11.344 67.692,-6.123 v 0 c 5.038,1.133 9.823,0.587 14.734,-0.968 v 0 c 7.291,-2.307 14.351,-5.475 21.99,-6.576 v 0 c 34.165,-4.925 66.229,2.025 96.673,17.504 v 0 c 41.274,20.986 75.331,51.19 106.869,84.478 v 0 c 8.719,9.201 11.801,20.124 9.543,33.12 v 0 c -4.338,24.974 -34.701,38.691 -57.118,27.19 v 0 c -5.407,-2.774 -9.806,-6.851 -13.968,-11.209 v 0 c -19.908,-20.845 -43.237,-37.459 -66.778,-53.79 v 0 c -11.792,-8.181 -24.888,-13.773 -38.36,-18.536 v 0 c -4.088,-0.062 -8.176,-0.125 -12.266,-0.187 v 0 l -1.717,-3.214 c -10e-4,0 1.145,2.143 1.717,3.214 v 0 c -2.597,3.058 -6.465,3.467 -9.911,4.756 v 0 c -0.905,1.96 -2.385,3.287 -4.407,4.022 v 0 c -3.7,6.645 -7.688,13.148 -11.046,19.961 v 0 c -10.951,22.219 -17.814,45.832 -23.299,69.889 v 0 c -2.977,13.062 -1.584,14.963 11.962,16.277 v 0 c 0.332,0.032 0.664,0.068 0.996,0.074 v 0 c 33.104,0.658 65.643,5.75 97.907,12.748 v 0 c 14.358,3.113 28.338,7.397 40.444,16.289 v 0 c 21.194,15.57 24.591,36.926 8.921,58.08 v 0 c -9.314,12.573 -18.747,25.069 -28.449,37.345 v 0 c -17.945,22.707 -35.573,45.688 -55.143,67.058 v 0 c -2.841,3.103 -5.238,7.02 -9.913,7.945 v 0 c -0.814,2.074 -2.282,3.461 -4.387,4.184 v 0 c -4.708,6.55 -9.884,12.569 -17.703,15.589 v 0 c 0,0 -0.404,0.329 -0.404,0.329 v 0 c -1.367,3.321 -3.753,5.302 -7.405,5.616 v 0 c -1.278,0.913 -2.557,1.827 -3.836,2.741 v 0 c -0.596,2.099 -1.923,3.239 -4.168,3.173 v 0 c -0.384,0.558 -0.915,0.87 -1.592,0.933 v 0 c -0.808,1.965 -2.082,3.28 -4.393,3.156 v 0 c -2.578,2.569 -5.352,4.781 -9.209,5.005 v 0 c -11.309,8.13 -33.187,9.537 -45.139,2.885 v 0 c -0.27,-0.149 -0.428,-0.498 -0.634,-0.754 v 0 c -3.862,-0.011 -6.908,-2.102 -10.115,-3.857 v 0 c -16.145,-8.843 -27.612,-22.339 -38.789,-36.654 v 0 c -13.103,-16.783 -15.421,-35.374 -13.527,-55.395 v 0 c -0.23,-9.493 -0.453,-18.99 -0.676,-28.486 v 0 c -1.23,-22.038 -7.316,-41.819 -24.689,-46.343 v 0 c -3.062,-0.798 -23.069,-9.165 -29.283,-15.792 v 0 c -5.781,-3.816 -7.656,-15.655 -7.598,-22.463 v 0 c 0.118,-14.027 7.304,-23.656 18.315,-31.313 v 0 c 8.827,-6.138 19.185,-7.321 29.217,-9.273 v 0 c 5.421,-1.056 7.974,-3.529 9.445,-8.616 v 0 c 3.049,-10.542 4.259,-21.47 7.603,-31.994 v 0 c 2.615,-8.225 5.688,-16.322 7.942,-24.669 v 0 c 0.762,-2.822 2.96,-6.122 0.381,-8.415 v 0 c -3.087,-2.745 -6.391,0.174 -8.976,1.811 v 0 c -19.118,12.106 -38.374,24.028 -57.058,36.781 v 0 c -42.629,29.098 -82.585,61.739 -122.755,94.056 v 0 c -21.499,17.296 -42.342,35.405 -63.444,53.191 v 0 c -5.087,4.286 -10.23,8.538 -14.98,13.181 v 0 c -6.001,5.865 -5.947,7.887 0.125,13.961 v 0 c 3.755,3.756 7.849,7.198 11.974,10.555 v 0 c 12.901,10.495 25.921,20.82 37.774,32.556 v 0 c 16.563,16.397 32.574,33.298 48.233,50.556 v 0 c 8.073,8.9 15.446,18.281 22.072,28.283 v 0 c 3.203,4.837 22.391,38.179 30.275,75.936 v 0 c 7.882,37.756 6.616,62.718 6.628,83.43 v 0 c 0.01,20.712 -3.53,34.717 -7.536,47.119 v 0 c -9.373,29.024 -27.299,51.623 -51.892,68.778 v 0 c -20.253,14.128 -42.951,22.189 -68.097,22.189 v 0 c -55.638,0 -77.317,-14.792 -117.483,-42.437 m -22.056,-327.469 c -3.587,13.848 -7.307,27.655 -9.138,41.892 v 0 c -0.57,4.433 0.833,8.59 1.268,12.87 v 0 c 4.014,39.502 11.27,78.437 24.602,115.863 v 0 c 11.452,32.145 26.616,62.65 50.683,87.545 v 0 c 10.198,10.549 22.543,18.687 36.44,24.038 v 0 c 25.639,9.873 49.027,-0.512 59.731,-25.877 v 0 c 6.756,-16.01 8.682,-32.683 8.849,-49.738 v 0 c -0.004,-29.367 -8.916,-56.178 -22.252,-82.03 v 0 c -16.387,-31.769 -37.31,-59.835 -64.364,-83.25 v 0 c -20.982,-18.161 -43.044,-34.672 -69.258,-44.763 v 0 c -2.484,-0.955 -4.864,-2.098 -7.594,-2.348 v 0 c -0.509,-0.047 -1.001,-0.072 -1.474,-0.072 v 0 c -3.782,0 -6.38,1.569 -7.493,5.87 m 450.285,-95.276 c -0.177,6.657 -0.036,13.321 -0.036,19.982 v 0 c -0.396,10.678 0.699,21.292 1.469,31.916 v 0 c 0.143,1.98 0.285,4.022 0.875,5.893 v 0 c 1.142,3.621 3.664,4.74 6.904,2.566 v 0 c 2.188,-1.467 4.279,-3.247 5.97,-5.259 v 0 c 12.633,-15.024 25.768,-29.65 36.793,-45.955 v 0 c 1.293,-1.91 2.553,-3.93 3.333,-6.079 v 0 c 1.033,-2.844 0.173,-5.307 -2.822,-6.539 v 0 c -2.151,-0.885 -4.363,-1.647 -6.594,-2.306 v 0 c -11.618,-3.433 -23.739,-2.941 -35.616,-4.23 v 0 c -0.803,-0.087 -1.549,-0.131 -2.241,-0.131 v 0 c -5.874,0 -7.851,3.181 -8.035,10.142 m 135.348,-61.09 c -0.745,-0.477 -1.294,-1.262 -1.542,-2.523 v 0 c 0.248,1.261 0.797,2.046 1.542,2.523" /></g></g></g></g><g
       id="g284"><g
         id="g286"><g
           id="g292"><g
             id="g294"><path
               id="path304"
               style="fill:url(#linearGradient302);stroke:none"
               d="m 1295.882,3232.852 c -31.521,-22.889 -45.903,-54.876 -45.607,-92.97 v 0 c 0.243,-31.328 13.136,-58.247 35.668,-79.969 v 0 c 11.149,-10.749 36.626,-22.073 44.569,-25.224 v 0 c 17.621,-6.988 36.032,-6.837 54.088,-3.034 v 0 c 45.128,9.506 73.928,37.26 87.421,81.103 v 0 c 16.825,54.666 -14.913,111.678 -59.136,131.309 v 0 c -17.352,7.703 -34.342,11.657 -50.937,11.657 v 0 c -22.782,10e-4 -44.823,-7.448 -66.066,-22.872" /></g></g></g></g><g
       id="g306"><g
         clip-path="url(#clipPath312)"
         id="g308"><g
           transform="translate(2317.4277,2541.5391)"
           id="g314"><path
             id="path316"
             style="fill:#ffab00;fill-opacity:1;fill-rule:nonzero;stroke:none"
             d="m 0,0 c -0.977,-17.64 -3.166,-35.058 -9.998,-51.556 -2.302,-5.556 -5.176,-10.851 -9.679,-14.95 -5.641,-5.134 -11.023,-4.202 -14.659,2.356 -1.622,2.925 -2.708,6.049 -2.946,9.442 -1.588,22.644 4.088,43.47 15.827,62.73 2.65,4.347 6.261,7.805 11.427,9.075 6.372,1.568 9.518,-0.634 9.986,-7.129 C 0.197,6.662 0,3.324 0,0 m -10.699,-189.76 c -2.138,-11.173 -4.2,-22.393 -9.415,-32.67 -1.049,-2.066 -2.422,-4.038 -3.965,-5.769 -3.75,-4.207 -8.654,-5.661 -12.546,-3.832 -4.552,2.14 -4.2,6.382 -4.493,10.543 2.37,16.533 9.985,30.293 22.706,41.105 3.741,3.18 6.965,1.531 7.662,-3.364 0.281,-1.973 0.421,-4.078 0.051,-6.013 m 52.235,59.339 c -12.637,3.082 -12.652,3.079 -12.596,15.558 0.145,32.306 0.277,64.612 0.493,96.917 0.025,3.643 0.673,7.278 0.839,10.925 0.679,14.948 2.27,29.974 -1.098,44.764 -2.818,12.377 -15.053,17.359 -25.463,10.151 -3.894,-2.697 -7.482,-3.81 -11.94,-3.651 -13.133,0.471 -23.842,-4.951 -33.168,-13.766 -9.2,-8.696 -14.89,-19.582 -19.194,-31.198 -9.12,-24.614 -12.493,-49.639 -3.794,-75.167 7.26,-21.304 27.929,-29.726 48.226,-20.03 4.155,1.984 7.4,5.703 13.602,6.633 1.268,-11.365 -0.089,-22.002 0.427,-32.576 0.371,-7.629 -2.6,-12.016 -9.418,-15.687 -25.354,-13.65 -44.212,-33.864 -57.233,-59.488 -4.743,-9.334 -7.671,-19.23 -6.803,-29.827 1.313,-16.03 7.679,-29.049 23.539,-35.225 20.921,-8.147 44.686,-0.36 57.317,18.322 7.356,10.881 12.147,22.782 15.267,35.567 3.265,13.385 4.049,26.934 4.807,40.572 0.521,9.393 5.227,11.802 13.217,6.954 7.664,-4.65 11.422,-11.475 11.525,-20.753 0.101,-8.985 4.42,-13.678 11.842,-14.756 7.737,-1.125 14.075,2.674 17.339,10.389 2.446,5.783 2.376,11.767 0.785,17.639 -5.434,20.06 -18.204,32.78 -38.518,37.733" /></g><g
           transform="translate(2100.333,2452.6018)"
           id="g318"><path
             id="path320"
             style="fill:#ffab00;fill-opacity:1;fill-rule:nonzero;stroke:none"
             d="m 0,0 c -9.503,-0.208 -19.873,-11.109 -19.59,-21.699 0.372,-13.963 8.777,-21.251 21.099,-21.702 11.617,-0.425 20.538,9.143 20.647,21.038 C 22.264,-10.576 11.536,0.252 0,0" /></g><g
           transform="translate(2246.137,2431.0623)"
           id="g322"><path
             id="path324"
             style="fill:#ffab00;fill-opacity:1;fill-rule:nonzero;stroke:none"
             d="m 0,0 c 4.963,6.841 5.846,12.484 1.558,17.83 -0.612,0.764 -1.33,1.521 -2.157,2.275 -7.1,6.478 -8.909,14.555 -9.343,23.258 -0.529,10.603 -2.132,59.991 -2.169,62.385 -0.085,5.585 -1.272,10.97 -2.98,16.203 -1.464,4.485 -3.31,8.858 -5.173,13.148 -3.236,7.453 -10.04,13.543 -18.974,14.895 -12.731,1.925 -24.518,-0.841 -34.823,-8.815 -8.183,-6.333 -8.442,-6.822 -17,-0.777 -7.011,4.952 -13.29,3.725 -19.327,-0.603 -5.462,-3.915 -7.977,-9.42 -6.365,-16.54 1.83,-8.086 4.017,-16.243 4.485,-24.458 1.381,-24.216 4.888,-48.316 4.103,-72.654 -0.15,-4.658 -0.237,-9.343 0.065,-13.988 0.577,-8.849 5.685,-14.281 14.901,-16.326 6.49,-1.439 14.395,2.845 17.857,9.928 2.672,5.466 4.426,11.351 3.546,17.406 -1.977,13.596 -0.837,27.275 -1.666,40.884 -0.596,9.759 2.153,19.115 3.004,28.694 0.418,4.717 3.5,9.235 5.561,13.76 2.177,4.778 6.449,5.295 10.995,4.898 4.535,-0.396 5.986,-3.991 6.921,-7.518 0.754,-2.842 0.764,-5.925 0.803,-8.905 0.155,-11.993 0.586,-24.001 0.156,-35.976 -0.374,-10.41 1.54,-20.548 2.645,-30.758 1.182,-10.917 6.334,-20.241 14.885,-27.373 0.483,-0.403 0.986,-0.782 1.506,-1.137 1.039,-0.71 2.147,-1.324 3.304,-1.842 7.523,-3.365 17.138,-2.667 23.684,2.104 C 0.001,-0.001 0.001,-0.001 0,0" /></g><g
           transform="translate(2436.4009,2514.2407)"
           id="g326"><path
             id="path328"
             style="fill:#ffab00;fill-opacity:1;fill-rule:nonzero;stroke:none"
             d="m 0,0 c -2.524,-12.13 -7.047,-23.6 -12.545,-34.658 -2.989,-6.013 -7.039,-11.372 -12.588,-15.292 -7.461,-5.271 -14.06,-3.319 -17.733,5.066 -2.904,6.628 -2.422,13.69 -2.575,20.697 0.727,17.489 4.82,34.192 12.169,50.062 2.236,4.827 5.24,9.251 9.149,13.003 9.772,9.38 19.11,7.177 23.717,-5.412 C 3.681,22.298 2.32,11.149 0,0 M 32.665,47.106 C 24.593,67.611 4.189,78.593 -15.708,76.085 -35.328,73.612 -50.244,62.246 -60.549,45.82 -73.758,24.765 -78.341,1.016 -79.404,-23.508 c -0.518,-11.174 2.121,-21.907 5.273,-32.367 5.741,-19.051 28.129,-30.932 47.716,-27.054 24.348,4.82 38.093,22.032 49.235,41.681 5.817,10.257 9.889,21.623 12.08,33.574 3.393,18.514 4.94,36.554 -2.235,54.78" /></g></g></g><g
       id="g330"><g
         id="g332"><g
           id="g338"><g
             id="g340"><path
               id="path350"
               style="fill:url(#linearGradient348);stroke:none"
               d="m 1831.241,3283.426 c 0,-27.407 22.217,-49.625 49.624,-49.625 v 0 c 27.407,0 49.625,22.218 49.625,49.625 v 0 c 0,27.407 -22.218,49.625 -49.625,49.625 v 0 c -27.407,0 -49.624,-22.218 -49.624,-49.625" /></g></g></g></g><g
       id="g352"><g
         clip-path="url(#clipPath358)"
         id="g354"><g
           transform="translate(641.1555,3231.2573)"
           id="g360"><path
             id="path362"
             style="fill:#fefefd;fill-opacity:1;fill-rule:nonzero;stroke:none"
             d="m 0,0 c -5.637,-15.957 -11.318,-31.928 -19.8,-46.715 -4.825,-8.411 -10.078,-16.442 -17.473,-22.851 -2.256,-1.956 -4.56,-3.948 -7.49,-4.826 -4.546,-1.361 -7.064,0.27 -7.166,5.02 -0.099,4.616 -0.117,9.201 1.184,13.824 5.395,19.169 10.453,38.381 17.096,57.234 6.429,18.245 15.517,34.246 29.328,47.655 1.19,1.155 2.264,2.512 3.642,3.376 3.833,2.403 7.118,0.89 7.868,-3.737 C 7.664,46.042 7.571,43.012 7.812,38.58 6.334,26.452 4.558,12.902 0,0 M 64.019,97.246 C 53.314,122.612 29.927,132.996 4.289,123.124 -9.609,117.772 -21.954,109.635 -32.152,99.086 -56.219,74.19 -71.383,43.686 -82.835,11.54 c -13.332,-37.425 -20.588,-76.361 -24.602,-115.863 -0.435,-4.279 -1.839,-8.436 -1.268,-12.87 1.832,-14.236 5.552,-28.043 9.138,-41.89 1.253,-4.841 4.385,-6.221 8.968,-5.8 2.729,0.251 5.109,1.393 7.594,2.349 26.213,10.091 48.275,26.602 69.257,44.762 27.054,23.416 47.977,51.481 64.365,83.251 13.335,25.852 22.248,52.663 22.251,82.029 -0.167,17.056 -2.093,33.728 -8.849,49.738" /></g><g
           transform="translate(2209.3032,1001.3917)"
           id="g364"><path
             id="path366"
             style="fill:#ffffff;fill-opacity:1;fill-rule:nonzero;stroke:none"
             d="m 0,0 c -9.563,-9.695 -19.266,-19.325 -31.542,-25.633 -12.386,-6.364 -17.742,-3.244 -22.22,9.672 -4.958,14.301 -8.765,28.921 -13.11,43.373 -2.341,7.784 -2.31,16.357 -2.774,24.607 -0.429,7.637 -0.091,15.317 -0.091,22.979 -0.001,5.995 -0.018,11.991 0.003,17.987 0.025,6.926 -0.78,13.823 4.845,19.682 2.528,2.635 1.237,7.433 4.251,10.809 6.363,7.127 14.658,8.729 23.322,9.637 3.958,0.415 7.989,0.102 11.986,0.178 5.553,0.104 7.112,-1.993 4.537,-6.87 -7.355,-13.928 -11.229,-28.916 -11.829,-44.435 -0.219,-5.649 0.669,-11.798 2.06,-17.685 1.669,-7.059 5.253,-13.523 5.418,-21.127 0.119,-5.485 5.521,-8.884 8.375,-13.328 2.65,-4.126 6.426,-7.362 8.342,-12.222 1.12,-2.839 4.224,-5.118 6.85,-7.097 C 5.139,5.465 5.374,5.449 0,0 m -568.693,126.727 c -2.743,-8.204 0.554,-17.328 -2.998,-25.564 -5.226,-12.117 -5.879,-25.442 -11.202,-37.768 -6.924,-16.033 -14.712,-31.532 -22.393,-47.163 -4.124,-8.391 -8.864,-16.194 -14.213,-23.714 -1.401,-1.97 -2.497,-5.636 -5.758,-4.598 -3.79,1.208 -1.988,5.082 -2.723,9.009 4.285,8.768 -0.256,20.029 5.4,29.905 1.817,3.173 1.457,7.755 1.574,11.707 0.35,11.8 5.677,22.337 8.883,33.302 7.414,25.349 18.101,49.442 34.116,70.805 0.792,1.055 1.421,2.35 2.446,3.089 2.237,1.612 5.007,1.693 5.382,-1.42 0.7,-5.805 3.601,-11.266 1.486,-17.59 m -68.815,59.319 c -6.264,-0.676 -12.635,-0.365 -18.959,-0.463 -1.999,-0.031 -3.999,-0.005 -8.379,-0.005 -13.737,-0.664 -29.513,1.52 -45.062,5.637 -17.467,4.625 -23.756,18.044 -16.143,34.471 0.56,1.207 1.242,2.358 1.798,3.567 6.255,13.612 16.972,17.608 31.597,11.404 22.65,-9.607 41.79,-24.584 57.557,-43.638 0.635,-0.768 1.299,-1.542 1.774,-2.409 2.456,-4.475 1.051,-7.998 -4.183,-8.564 m -71.984,193.571 c 2.091,1.342 23.235,6.644 29.021,7.753 11.131,2.135 22.364,3.423 33.733,2.873 2.935,-0.142 6.42,0.454 8.019,-2.767 1.685,-3.394 -0.071,-6.517 -2.129,-9.229 -7.485,-9.865 -36.602,-33.709 -41.167,-38.631 -0.253,-0.451 -0.627,-0.748 -1.123,-0.892 -12.73,-14.78 -29.053,-14.219 -39.403,1.655 -3.583,5.495 -6.863,11.323 -6.739,18.356 0.192,10.871 6.746,15.719 19.788,20.882 M -966.846,214.142 c -2.003,-4.443 -5.878,-6.285 -10.28,-7.394 -3.783,-5.305 -9.788,-3.018 -14.704,-3.959 -13.136,-2.517 -26.384,-1.809 -39.469,0.941 -6.176,1.299 -8.1,4.19 -4.867,8.844 6.34,9.125 14.592,16.934 24.611,22.754 2.111,2.612 8.191,9.028 10.698,8.539 0.946,0.483 1.358,3.366 2.304,3.849 4.793,4.007 9.811,6.302 15.687,2.056 3.917,-0.965 7.068,-3.013 9.208,-6.496 2.361,-0.593 3.533,-1.989 3.042,-4.506 0.386,-1.067 0.773,-2.135 1.159,-3.202 2.177,-0.964 3.334,-2.383 2.161,-4.842 0.262,-1.249 0.525,-2.498 0.787,-3.747 3.47,-4.373 3.326,-8.651 -0.337,-12.837 m -90.326,148.57 c -2.97,2.963 -7.405,6.053 -5.318,10.817 1.824,4.164 6.81,3.456 10.739,3.581 19.575,0.619 39.17,1.859 58.552,-2.542 5.24,-1.19 10.192,-2.833 14.952,-5.348 9.601,-5.073 13.228,-11.18 12.107,-21.715 -0.836,-7.861 -4.361,-14.706 -9.603,-20.4 -3.574,-3.883 -7.906,-7.401 -14.028,-5.194 -1.305,0.007 -2.61,0.015 -3.916,0.022 -7.27,-1.207 -12.773,3.323 -18.33,6.457 -16.575,9.346 -31.657,20.854 -45.155,34.322 m -510.976,13.162 c -5.637,-15.957 -11.318,-31.928 -19.8,-46.714 -4.825,-8.412 -10.078,-16.443 -17.473,-22.852 -2.256,-1.956 -4.56,-3.948 -7.49,-4.825 -4.545,-1.362 -7.064,0.27 -7.166,5.019 -0.099,4.617 -0.116,9.201 1.185,13.825 5.394,19.168 10.453,38.38 17.096,57.233 6.428,18.245 15.516,34.247 29.327,47.655 1.19,1.156 2.264,2.512 3.642,3.376 3.833,2.403 7.118,0.89 7.868,-3.737 0.476,-2.937 0.383,-5.967 0.623,-10.4 -1.477,-12.127 -3.254,-25.678 -7.812,-38.58 M 468.805,6.567 c -1.212,3.75 -0.13,7.811 -2.397,11.578 -4.081,6.78 -7.17,14.219 -12.741,19.991 -12.376,12.824 -23.758,27.375 -44.216,27.097 -2.557,-0.035 -4.766,0.946 -4.909,3.845 -0.246,4.965 -1.735,10.485 0.728,14.762 3.274,5.688 2.352,11.51 3.092,17.355 1.106,8.732 -4.316,15.824 -5.158,24.004 -0.655,6.353 -3.423,11.86 -6.161,17.623 -3.378,7.112 -8.497,12.65 -13.094,18.656 -9.657,12.616 -18.54,25.844 -29.941,37.113 -4.415,4.365 -9.424,9.436 -10.941,15.054 -1.473,5.459 -4.027,9.658 -7.082,13.865 -5.069,6.981 -10.43,13.75 -15.651,20.622 0,0 -20.622,22.08 -71.522,68.489 -50.899,46.408 -82.629,43.027 -118.558,37.859 -35.929,-5.169 -75.718,-44.833 -75.718,-44.833 0,0 -36.022,22.493 -95.19,19.416 -62.747,-3.263 -106.352,-22.396 -148.993,-44.465 -6.634,-4.341 -13.195,-8.8 -19.926,-12.984 -5.368,-3.338 -6.176,-3.164 -8.262,3.283 -5.037,15.567 -13.767,28.724 -25.723,39.662 -5.846,5.348 -12.485,9.83 -18.765,14.704 -4.668,0.141 -8.076,3.086 -12.397,4.925 2.31,3.19 4.888,4.932 7.882,6.147 15.193,11.737 28.976,24.999 35.8,43.263 7.817,20.923 13.2,42.243 7.565,65.224 -4.341,17.703 -9.735,34.343 -21.971,48.394 -14.844,17.044 -32.29,29.544 -54.713,34.336 -7.779,1.662 -15.547,3.375 -23.321,5.065 -16.978,-0.391 -33.157,-4.81 -49.203,-9.836 -4.432,-1.389 -8.346,-3.865 -12.092,-6.584 -2.917,-2.117 -5.606,-4.639 -9.357,-5.279 -4.673,-7.331 -12.739,-11.21 -17.948,-18.19 -16.491,-22.1 -23.111,-47.128 -23.548,-74.214 -0.026,-1.646 -0.075,-3.291 -0.113,-4.937 0.238,-6.739 0.578,-9.913 2.857,-18.883 1.779,-7.005 3.572,-9.645 5.652,-14.653 11.99,-22.817 28.756,-40.879 52.134,-51.845 0.186,-3.231 -2.02,-3.555 -3.826,-4.209 -7.523,-2.721 -14.414,-6.675 -21.231,-10.777 -8.608,-5.18 -8.621,-5.2 -16.023,1.441 -1.214,1.09 -2.231,2.4 -3.34,3.608 -6.093,3.955 -12.263,7.799 -18.267,11.887 -15.63,10.643 -33.563,15.52 -51.369,20.746 -3.172,0.931 -6.311,1.974 -9.465,2.966 -2.714,-0.238 -5.299,0.354 -7.845,1.207 -18.469,3.095 -36.642,-0.526 -54.891,-2.421 -1.709,-0.313 -3.418,-0.626 -5.127,-0.939 -10.527,-2.371 -21.053,-4.742 -31.645,-7.128 -0.074,0.89 -0.258,1.36 -0.106,1.531 21.564,23.589 13.817,46.073 14.018,47.039 -0.246,1.432 -0.763,7.853 -2.136,11.001 -1.373,3.149 -1.707,4.525 -4.46,6.739 -1.709,2.049 -3.417,4.097 -5.126,6.145 -14.716,14.749 -33.711,15.417 -52.759,16.229 -14.13,0.602 -27.815,-2.514 -41.657,-4.334 -4.945,-0.651 -9.814,-1.862 -14.742,-2.674 -10.878,-1.794 -14.913,1.549 -15.142,12.388 -0.231,10.989 -0.032,22.009 -0.816,32.958 -1.321,18.472 -6.157,35.962 -15.752,52.061 -7.737,12.983 -18.793,18.536 -33.886,18.925 -16.217,0.419 -29.154,-5.221 -40.181,-16.552 -6.776,-6.962 -12.5,-14.683 -17.622,-22.915 -4.572,-7.351 -9.426,-14.525 -14.109,-21.807 -5.969,-9.28 -14.896,-12.05 -25.144,-10.62 -8.35,1.165 -15.61,4.824 -22.14,10.629 -13.901,12.355 -28.263,24.203 -42.673,35.969 -4.863,3.97 -10.476,6.89 -16.426,9.253 -27.955,11.098 -59.236,-10.959 -58.228,-41.312 0.451,-13.562 3.665,-26.181 8.146,-38.71 0.448,-1.253 1.022,-2.462 1.474,-3.714 7.271,-20.145 -2.689,-34.812 -24.007,-35.11 -9.994,-0.14 -20,-0.083 -29.987,0.275 -11.038,0.397 -21.93,-1.579 -32.785,-2.63 -8.298,-0.803 -13.972,-8.608 -17.165,-16.408 -6.706,-16.381 -4.351,-31.846 6.327,-46.029 8.49,-11.279 19.072,-20.402 30.018,-29.128 7.535,-6.006 15.114,-11.922 23.091,-17.402 14.168,-9.733 14.178,-27.327 0.498,-37.88 -4.466,-3.446 -9.723,-5.947 -13.87,-9.705 -4.169,-3.779 -6.758,-2.621 -9.897,0.932 -11.487,13.002 -24.481,24.49 -36.879,36.582 -8.118,7.917 -17.532,14.252 -25.64,22.129 -5.617,1.629 -9.286,6.204 -13.771,9.451 -18.151,13.143 -38.193,21.526 -60.165,25.514 -4.988,-0.103 -9.999,-0.553 -14.962,-0.246 -16.949,1.047 -33.085,-2.109 -48.727,-8.502 -3.329,-1.361 -6.572,-3.371 -10.442,-2.979 -0.836,-0.535 -1.609,-1.233 -2.517,-1.579 -25.038,-9.532 -41.783,-28.505 -56.709,-49.593 -2.098,-2.965 -4.588,-5.652 -6.897,-8.468 -0.066,-0.325 -0.03,-0.728 -0.211,-0.966 -21.743,-28.64 -26.054,-61.993 -25.104,-96.384 0.333,-12.052 -2.32,-19.954 -13.281,-26.871 -13.732,-8.665 -24.408,-21.391 -33.519,-35.09 -3.53,-5.307 -3.665,-5.217 -9.01,0.458 -11.029,6.782 -20.634,15.437 -30.828,23.321 -4.419,3.418 -3.334,6.205 -0.208,9.776 8.07,9.219 15.898,18.649 23.791,28.021 1.268,1.506 2.37,3.151 3.549,4.731 20.253,25.075 38.058,51.734 52.221,80.743 4.524,9.267 58.774,93.034 39.449,221.97 -3.158,21.071 -7.705,40.291 -18.02,58.443 -5.248,9.237 -10.519,18.461 -15.779,27.691 -5.8,4.497 -10.565,10.039 -15.211,15.649 -9.528,11.508 -20.433,21.6 -31.651,31.389 -2.432,1.041 -5.141,1.69 -7.251,3.185 -19.191,13.591 -40.963,21.8 -62.604,30.297 -17.91,4.43 -36.109,5.225 -54.469,4.734 -54.469,4.733 -118.7,-40.282 -118.7,-40.282 -7.741,-4.917 -16.539,-8.158 -23.346,-14.84 -6.593,-6.472 -13.733,-12.722 -21.587,-17.504 -13.643,-8.306 -24.066,-19.497 -33.128,-32.288 -2.494,-3.52 -5.077,-6.979 -7.516,-10.536 -2.272,-3.313 -5.303,-4.704 -9.326,-4.696 -21.557,0.045 -40.813,-7.351 -59.427,-17.647 -21.066,-11.653 -37.785,-26.718 -45.495,-50.344 -4.933,-15.116 -10.688,-29.786 -11.219,-46.177 -0.64,-19.754 3.08,-39.008 4.719,-58.481 0.485,-5.767 0.795,-11.959 3.321,-17.519 1.617,-15.805 3.4,-31.576 4.523,-47.448 0.73,-10.327 4.963,-20.496 6.364,-31.047 1.349,-10.165 2.9,-20.261 3.569,-30.54 0.752,-11.528 2.965,-22.961 4.559,-34.434 0.364,-2.618 1.212,-5.24 1.133,-7.838 -0.657,-21.47 4.601,-42.032 9.103,-62.757 4.146,-19.089 9.716,-37.904 11.577,-57.455 2.386,-0.221 43.056,-168.492 47.737,-183.213 3.194,-10.047 6.36,-20.489 11.838,-29.33 7.847,-12.662 17.781,-24.122 29.282,-33.778 8.062,-6.77 15.816,-14.119 26.259,-17.66 14.634,-4.961 46.937,-11.542 79.814,-2.302 6.554,2.319 28.104,12.394 38.952,24.076 13.19,15.013 21.545,31.369 23.047,39.744 1.68,9.362 3.124,18.736 5.696,28.004 1.29,4.648 1.189,26.4 -1.451,43.999 -2.402,5.599 -1.467,11.851 -3.575,17.513 -0.459,1.233 -0.121,2.758 1.051,3.577 1.295,0.906 2.728,0.231 3.563,-0.763 8.7,-10.351 21.329,-15.718 31.155,-24.697 8.071,-7.374 199.757,-147.484 255.949,-143.313 8.593,-2.529 45.924,-1.836 50.248,-1.878 6.925,-0.068 13.452,-0.634 20.328,-3.178 8.521,-3.153 18.135,-4.204 27.328,-4.484 12.565,-0.381 25.131,-0.818 37.82,0.882 11.249,1.507 21.405,6.512 32.517,7.889 13.714,1.698 84.986,43.598 97.111,51.53 8.276,5.413 15.393,12.572 23.226,18.698 4.819,3.77 9.794,1.963 11.153,-3.953 0.585,-2.546 0.255,-5.303 0.332,-7.964 0.144,-4.968 0.526,-9.862 1.235,-14.833 1.434,-10.044 0.307,-20.453 4.654,-30.085 0.376,-0.833 0.055,-1.977 0.074,-2.976 0.11,-5.965 -0.501,-11.958 1.635,-17.791 0.779,-2.126 0.986,-4.861 -1.07,-6.526 -2.41,-1.952 -5.276,-1.139 -7.437,0.463 -5.881,4.361 -12.951,4.708 -19.65,6.336 -1.603,0.389 -3.373,0.378 -4.824,1.063 -15.265,7.213 -31.169,6.361 -46.666,2.151 -7.303,-1.983 -14.35,-4.713 -21.993,-5.334 -1.611,-0.131 -3.5,-0.48 -4.702,-1.433 -8.546,-6.77 -18.496,-11.497 -26.731,-18.762 -3.717,-3.279 -3.954,-8.526 -7.551,-11.537 -11.295,-9.453 -13.715,-23.383 -16.481,-36.229 -4.269,-19.824 -3.06,-40.134 -1.195,-60.445 0.858,-9.334 3.755,-17.979 5.288,-27.007 0.939,-5.536 0.71,-11.237 2.491,-16.68 5.217,-15.943 24.814,-76.773 30.887,-90.602 9.296,-21.168 23.541,-39.667 36.814,-58.539 11.16,-15.867 25.608,-28.526 42.011,-38.889 5.856,-3.699 11.227,-8.003 17.546,-11.188 7.275,-3.666 15.339,-4.363 22.407,-7.492 11.953,-5.293 24.569,-5.555 36.897,-6.623 19.962,-1.729 39.446,2.998 58.391,8.994 13.594,4.303 26.159,10.644 37.088,20.381 4.771,4.25 9.47,9.207 16.11,11.437 3.34,1.122 6.325,4.295 7.627,7.608 1.656,4.215 4.485,7.246 7.215,10.59 5.239,6.418 10.84,12.704 15.014,19.796 11.471,19.49 18.273,40.82 23.31,62.789 1.557,6.788 1.805,14.276 4.532,20.263 5.622,12.343 5.355,25.735 8.164,38.419 2.779,12.544 2.32,26.324 2.743,39.572 0.521,16.309 -0.425,32.67 0.279,48.965 0.699,16.158 -8.45,90.558 -8.088,104.177 0.09,3.409 -1.82,7.982 2.445,9.867 4.131,1.826 7.58,-1.195 10.763,-3.631 1.051,-0.805 1.892,-1.88 2.904,-2.744 7.956,-6.795 17.625,-11.044 27.118,-14.29 11.403,-3.899 23.692,-5.329 35.551,-8.192 20.014,-4.83 40.566,-4.026 61.012,-0.722 4.488,0.726 7.749,3.651 12.094,4.215 11.466,1.489 22.654,3.839 33.674,7.763 12.594,4.485 24.458,9.987 35.314,17.719 2.701,1.924 5.222,4.149 8.078,5.802 16.66,9.645 31.398,21.95 45.509,34.763 11.19,10.162 22.498,20.381 30.69,33.713 6.524,10.617 15.776,19.517 21.848,30.614 1.275,2.33 2.536,4.717 4.874,6.229 4.65,3.008 9.114,1.341 10.044,-4.15 1.593,-9.402 3.561,-18.714 6.328,-27.824 3.648,-12.01 7.022,-24.157 11.616,-35.811 4.733,-12.006 13.557,-21.823 19.814,-33.073 0.93,-1.673 2.541,-3.582 4.233,-4.108 6.65,-2.067 10.693,-7.74 16.348,-11.164 8.238,-4.987 16.621,-9.235 26.352,-10.468 4.911,-0.622 10.275,-0.907 14.461,-3.155 4.803,-2.58 9.475,-2.715 14.431,-2.72 5.914,-0.007 11.378,0.608 17.23,3.08 7.45,3.148 16.369,2.631 24.193,5.136 7.306,2.34 14.852,3.728 21.575,8.789 11.541,8.688 22.201,17.829 29.808,30.221 0.51,0.831 1.359,1.459 2.069,2.162 6.188,6.127 8.745,6.289 14.987,0.115 5.67,-5.609 11.193,-11.233 18.688,-14.557 2.658,-1.179 4.83,-3.461 7.204,-5.264 3.964,-3.01 7.671,-6.438 11.908,-8.99 17.441,-10.508 37.028,-15.525 56.457,-20.38 18.75,-4.686 38.137,-5.596 57.426,-4.241 10.533,0.741 21.362,1.716 31.33,4.878 11.861,3.762 24.139,6.11 35.69,11.155 12.75,5.569 25.662,10.567 37.214,18.555 11.424,7.9 23.036,15.504 33.42,24.808 3.931,3.522 9.424,4.089 12.883,0.989 47.709,-49.737 118.338,-45.637 134.338,-42.772 10.097,1.808 19.826,4.784 29.703,7.263 41.143,14.891 90.492,36.095 121.987,64.138 17.595,15.721 35.124,31.6 51.413,48.764 8.658,9.123 15.17,19.821 18.384,31.446 5.23,18.919 7.361,38.491 1.083,57.913" /></g><g
           transform="translate(343.6673,1251.3782)"
           id="g368"><path
             id="path370"
             style="fill:#ff92d3;fill-opacity:1;fill-rule:nonzero;stroke:none"
             d="M 0,0 C 0.761,-0.31 1.522,-0.619 2.281,-0.924 1.519,-0.613 0.76,-0.307 0,0" /></g><g
           transform="translate(328.0059,1333.036)"
           id="g372"><path
             id="path374"
             style="fill:#ff92d3;fill-opacity:1;fill-rule:nonzero;stroke:none"
             d="M 0,0 C -0.631,-0.456 -1.262,-0.912 -1.892,-1.368 -1.261,-0.912 -0.63,-0.456 0,0" /></g><g
           transform="translate(991.8373,1142.8877)"
           id="g376"><path
             id="path378"
             style="fill:#fefefd;fill-opacity:1;fill-rule:nonzero;stroke:none"
             d="m 0,0 c -0.396,10.678 0.699,21.292 1.469,31.916 0.144,1.98 0.286,4.022 0.876,5.894 1.142,3.62 3.664,4.739 6.904,2.566 2.188,-1.468 4.278,-3.248 5.97,-5.26 12.632,-15.023 25.767,-29.651 36.793,-45.955 1.292,-1.911 2.552,-3.93 3.332,-6.078 1.034,-2.845 0.173,-5.308 -2.821,-6.539 -2.152,-0.885 -4.364,-1.648 -6.595,-2.307 -11.618,-3.432 -23.739,-2.94 -35.616,-4.23 C 2.688,-30.821 0.243,-27.763 0.037,-19.982 -0.14,-13.325 0,-6.661 0,0" /></g><g
           transform="translate(2375.4846,1147.4246)"
           id="g380"><path
             id="path382"
             style="fill:#fefefd;fill-opacity:1;fill-rule:nonzero;stroke:none"
             d="m 0,0 c 1.219,13.222 2.022,26.499 3.787,39.647 1.435,10.7 6.43,12.376 14.393,4.874 C 28.371,34.922 36.213,23.26 44.614,12.137 49.213,6.047 53.467,-0.357 57.317,-6.946 62.434,-15.701 59.765,-21.065 49.643,-22.022 38.397,-23.085 27.085,-23.724 15.791,-23.923 2.587,-24.156 0.377,-21.587 0.317,-8.018 0.305,-5.358 0.315,-2.698 0.315,-0.037 0.21,-0.025 0.105,-0.012 0,0" /></g></g></g><g
       id="g384"><g
         id="g386"><g
           id="g392"><g
             id="g394"><path
               id="path404"
               style="fill:url(#linearGradient402);stroke:none"
               d="m 1867.156,1279.43 c -22.992,-5.722 -36.025,-19.925 -36.892,-43.304 v 0 c -1.16,-31.264 -3.763,-62.493 -2.87,-93.83 v 0 c 0.897,-48.25 2.18,-96.445 7.754,-144.502 v 0 c 3.84,-33.096 8.151,-66.011 16.831,-98.207 v 0 c 3.808,-14.123 7.756,-28.299 15.696,-40.846 v 0 c 5.31,-8.392 12.381,-14.008 22.368,-17.067 v 0 c 16.535,-5.066 32.503,-3.046 48.1,2.105 v 0 c 14.587,4.816 26.948,18.252 22.167,39.412 v 0 c -0.733,3.24 -1.756,6.415 -2.641,9.62 v 0 c -2.745,9.936 -5.894,19.78 -8.155,29.825 v 0 c -7.237,32.15 -11.241,64.815 -15.546,97.457 v 0 c -5.106,38.714 -6.597,77.57 -6.744,116.526 v 0 c -0.042,11.304 0.676,22.614 1.112,33.918 v 0 c 0.512,13.298 0.299,26.604 1.745,39.895 v 0 c 1.006,9.231 0.836,18.639 0.565,27.95 v 0 c -0.45,15.471 -7.041,27.67 -21.09,34.905 v 0 c -9.393,4.836 -19.055,7.78 -29.249,7.781 v 0 c -4.283,0 -8.659,-0.52 -13.151,-1.638" /></g></g></g></g><g
       id="g406"><g
         id="g408"><g
           id="g414"><g
             id="g416"><path
               id="path426"
               style="fill:url(#linearGradient424);stroke:none"
               d="m 1157.226,1378.254 c -3.928,-0.124 -8.914,0.584 -10.738,-3.58 v 0 c -2.087,-4.764 2.348,-7.854 5.319,-10.818 v 0 c 13.497,-13.467 29.367,-23.696 45.153,-34.321 v 0 c 14.421,-9.707 27.054,-11.477 36.274,-1.285 v 0 c 5.193,5.74 8.768,12.539 9.603,20.4 v 0 c 1.121,10.535 -2.505,16.641 -12.106,21.715 v 0 c -4.76,2.515 -9.712,4.158 -14.953,5.348 v 0 c -11.067,2.513 -22.207,3.187 -33.371,3.187 v 0 c -8.385,0 -16.784,-0.38 -25.181,-0.646" /></g></g></g></g><g
       id="g428"><g
         id="g430"><g
           id="g436"><g
             id="g438"><path
               id="path448"
               style="fill:url(#linearGradient446);stroke:none"
               d="m 1484.725,1230.398 c -0.556,-1.21 -1.239,-2.36 -1.798,-3.567 v 0 c -7.613,-16.427 -1.325,-29.846 16.143,-34.471 v 0 c 15.548,-4.117 31.325,-6.301 45.061,-5.638 v 0 c 4.38,0 6.381,-0.026 8.379,0.01 v 0 c 1.857,0.029 3.717,0.023 5.578,0.017 v 0 c 4.477,-0.016 8.957,-0.031 13.381,0.447 v 0 c 5.234,0.565 6.64,4.088 4.184,8.564 v 0 c -0.476,0.866 -1.139,1.641 -1.774,2.409 v 0 c -15.768,19.054 -34.907,34.031 -57.558,43.638 v 0 c -4.486,1.903 -8.606,2.846 -12.341,2.846 v 0 c -8.44,10e-4 -14.919,-4.814 -19.255,-14.25" /></g></g></g></g><g
       id="g450"><g
         id="g452"><g
           id="g458"><g
             id="g460"><path
               id="path470"
               style="fill:url(#linearGradient468);stroke:none"
               d="m 1432.834,1502.25 c -0.774,-0.624 -1.45,-1.37 -2.189,-2.041 v 0 c -14.223,-12.902 -24.582,-28.767 -34.248,-45.105 v 0 c -17.826,-30.135 5.374,-37.549 9.357,-39.47 v 0 c 17.427,-8.404 29.183,-3.323 34.201,15.11 v 0 c 5.035,18.493 5.405,37.442 3.839,56.426 v 0 c -0.352,4.272 -1.545,8.504 -2.648,12.677 v 0 c -0.868,3.277 -1.93,4.84 -3.585,4.84 v 0 c -1.209,0 -2.732,-0.832 -4.727,-2.437" /></g></g></g></g><g
       id="g472"><g
         id="g474"><g
           id="g480"><g
             id="g482"><path
               id="path492"
               style="fill:url(#linearGradient490);stroke:none"
               d="m 2342.761,1289.49 c -20.429,-6.678 -34.231,-21.211 -43.557,-40.221 v 0 c -8.767,-17.868 -12.085,-37.273 -15.465,-56.594 v 0 c -2.999,-17.138 -2.067,-34.525 -2.136,-51.827 v 0 c -0.073,-18.361 -0.037,-18.196 -17.784,-21.677 v 0 c -12.121,-2.379 -23.662,-6.93 -29.235,-18.724 v 0 c -10.044,-21.258 -1.648,-46.976 21.061,-55.703 v 0 c 7.769,-2.986 15.702,-5.73 24.12,-6.129 v 0 c 4.693,-0.223 6.941,-2.161 8.301,-6.798 v 0 c 3.2,-10.904 4.642,-22.154 7.247,-33.167 v 0 c 1.283,-5.423 -0.558,-8.025 -6.896,-8.374 v 0 c -13.406,-0.738 -23.055,-7.935 -31.677,-17.038 v 0 c -8.943,-9.443 -18.081,-18.711 -28.199,-26.841 v 0 c -15.065,-12.105 -30.499,-23.973 -48.978,-30.442 v 0 c -21.746,-7.611 -41.001,-2.552 -54.74,14.686 v 0 c -9.912,12.436 -16.528,26.456 -21.76,41.312 v 0 c -9.223,26.175 -16.092,52.902 -17.732,80.672 v 0 c -1.511,25.59 -2.464,51.186 5.438,76.219 v 0 c 9.416,29.831 29.116,48.423 59.262,56.463 v 0 c 11.665,3.11 23.634,3.797 35.477,5.419 v 0 c 9.166,1.254 16.456,5.514 21.987,12.439 v 0 c 9.745,12.2 11.908,25.397 4.921,40.074 v 0 c -6.391,13.423 -15.92,21.356 -31.015,23.311 v 0 c -9.783,1.268 -19.278,-0.374 -28.887,-0.624 v 0 c -28.837,-0.756 -56.066,-8.522 -80.741,-23.08 v 0 c -34.225,-20.194 -57.204,-50.596 -71.57,-87.144 v 0 c -14.725,-37.464 -18.913,-76.733 -15.945,-116.761 v 0 c 0.456,-6.158 0.352,-12.609 3.875,-18.191 v 0 c -10e-4,-10e-4 -10e-4,-10e-4 -10e-4,0 v 0 c -0.573,-2.892 -0.386,-5.704 0.889,-8.401 v 0 c -1.441,-7.565 2.135,-14.273 3.85,-21.243 v 0 c 8.98,-36.504 23.76,-70.239 46.649,-100.442 v 0 c 32.523,-42.915 76.183,-60.063 128.76,-57.35 v 0 c 5.398,0.279 24.683,3.79 27.524,4.684 v 0 c 18.475,5.816 36.205,13.325 52.941,23.149 v 0 c 23.492,13.79 42.932,32.5 62.388,51.178 v 0 c 10.909,10.474 11.234,10.563 19.83,-1.77 v 0 c 10.341,-14.838 22.001,-28.412 36.757,-39.122 v 0 c 20.673,-15.003 44.13,-22.361 69.27,-21.834 v 0 c 26.732,0.559 51.652,9.523 74.599,23.033 v 0 c 27.064,15.934 51.521,35.487 74.536,56.792 v 0 c 10.017,9.273 19.975,18.686 29.153,28.768 v 0 c 11.172,12.275 12.754,28.299 5.174,40.614 v 0 c -11.257,18.287 -36.332,25.099 -55.401,15.055 v 0 c -5.935,-3.126 -11.23,-7.185 -16.21,-11.6 v 0 c -20.941,-18.564 -43.09,-35.638 -65.041,-52.958 v 0 c -6.047,-4.771 -12.508,-8.957 -19.564,-11.948 v 0 c -27.687,-11.732 -40.215,-4.492 -50.256,16.399 v 0 c -11.865,24.686 -21.553,50.113 -27.001,77.029 v 0 c -0.526,2.593 -0.666,5.28 -0.801,7.933 v 0 c -0.173,3.412 1.31,5.808 4.792,6.57 v 0 c 2.595,0.569 5.215,1.276 7.845,1.387 v 0 c 34.614,1.462 68.981,5.877 103.475,8.746 v 0 c 16.568,1.376 32.964,4.981 46.854,15.405 v 0 c 14.783,11.094 19.197,27.433 12.002,44.312 v 0 c -2.768,6.498 -6.436,12.426 -10.815,17.899 v 0 c -25.984,32.474 -52.447,64.564 -77.872,97.488 v 0 c -15.615,20.22 -34.866,36.618 -56.009,50.73 v 0 c -13.851,9.244 -28.447,13.38 -43.457,13.381 v 0 c -9.926,0 -20.032,-1.808 -30.232,-5.142 m 32.715,-150.33 c -0.012,2.66 0,5.32 0,7.98 v 0 c -0.105,0.012 -0.21,0.026 -0.315,0.038 v 0 c 1.218,13.221 2.023,26.499 3.786,39.646 v 0 c 1.436,10.701 6.431,12.376 14.395,4.875 v 0 c 10.19,-9.599 18.032,-21.261 26.433,-32.385 v 0 c 4.599,-6.09 8.853,-12.494 12.703,-19.082 v 0 c 5.117,-8.756 2.448,-14.12 -7.674,-15.077 v 0 c -11.246,-1.062 -22.557,-1.702 -33.851,-1.9 v 0 c -0.52,-0.01 -1.023,-0.014 -1.509,-0.014 v 0 c -11.867,0 -13.909,2.884 -13.966,15.919 m -364.267,25.2 c -0.316,-0.027 -0.614,-0.072 -0.893,-0.136 v 0 c 0.279,0.064 0.577,0.109 0.893,0.136 m 240.437,-54.212 -4,-3.604 c 0.71,1.778 2.082,2.928 4,3.604 m -7.154,-6.446 -2.376,-2.139 c 0.56,0.942 1.358,1.65 2.376,2.139 m 296.803,-29.437 c 1.968,0.703 3.934,1.407 5.901,2.111 v 0 c -1.967,-0.704 -3.933,-1.408 -5.9,-2.111 v 0 c -2.385,-4.523 -6.129,-5.957 -10.174,-6.704 v 0 c 4.045,0.747 7.789,2.181 10.173,6.704 M 2227.293,856.473 v -10e-4 c -0.63,-0.11 -1.264,-0.186 -1.903,-0.226 v 0 c 0.639,0.04 1.272,0.116 1.903,0.227" /></g></g></g></g><g
       id="g494"><g
         id="g496"><g
           id="g502"><g
             id="g504"><path
               id="path514"
               style="fill:url(#linearGradient512);stroke:none"
               d="m 1329.367,1132.132 c -20.91,-0.642 -35.515,-12.642 -41.623,-32.599 v 0 c -8.608,-28.128 -8.927,-57.139 -9.185,-86.05 v 0 c -0.174,-19.604 1.785,-39.222 2.611,-58.842 v 0 c 1.316,-31.284 5.404,-62.3 8.789,-93.387 v 0 c 2.23,-20.486 5.039,-40.942 6.835,-61.429 v 0 c 1.976,-22.528 5.091,-44.923 6.975,-67.466 v 0 c 1.996,-23.884 4.706,-47.669 4.288,-63.193 v 0 c -0.248,-27.112 0.166,-45.73 -2.815,-64.26 v 0 c -2.279,-14.166 -4.85,-28.218 -10.223,-41.549 v 0 c -1.666,-4.135 -2.732,-9.972 -7.978,-10.687 v 0 c -5.893,-0.804 -8.041,5.09 -10.786,9.012 v 0 c -20.642,29.493 -32.078,62.545 -37.495,97.89 v 0 c -2.225,14.517 -1.971,29.222 -3.419,43.799 v 0 c -2.041,20.541 -11.831,31.72 -31.462,37.641 v 0 c -14.513,4.378 -28.533,2.802 -42.087,-2.23 v 0 c -12.241,-4.545 -20.103,-13.845 -22.514,-27.141 v 0 c -3.563,-19.654 -0.882,-39.248 1.599,-58.638 v 0 c 2.532,-19.779 8.023,-39.005 13.859,-58.177 v 0 c 9.011,-29.6 22.303,-56.923 39.295,-82.59 v 0 c 8.678,-13.107 18.782,-25.045 30.861,-35.161 v 0 c 19.354,-16.209 41.662,-22.167 66.852,-20.94 v 0 c 32.629,1.592 58.101,15.599 77.249,41.338 v 0 c 18.116,24.351 26.161,52.896 31.774,82.149 v 0 c 6.751,35.177 6.867,70.822 6.387,106.459 v 0 c -0.184,13.647 -0.066,27.355 -1.323,40.919 v 0 c -2.702,29.129 -5.241,58.275 -9.148,87.299 v 0 c -3.77,28.012 -6.515,56.166 -9.816,84.247 v 0 c -3.609,30.691 -7.273,61.372 -8.752,92.338 v 0 c -1.343,28.1 -0.899,55.799 4.836,83.365 v 0 c 0.945,4.54 1.078,9.241 1.772,13.84 v 0 c 2.536,16.794 -5.979,27.709 -18.864,36.704 v 0 c -9.071,6.333 -19.08,7.476 -29.271,7.476 v 0 c -2.401,0 -4.81,-0.063 -7.221,-0.137 m -42.373,-131.816 c -0.834,0.87 -1.388,1.873 -1.634,2.974 v 0 c 0.246,-1.101 0.8,-2.104 1.637,-2.973 v 0 c 0.403,-2.04 0.898,-4.067 1.223,-6.117 v 0 c -0.325,2.05 -0.821,4.077 -1.226,6.116" /></g></g></g></g><g
       id="g516"><g
         id="g518"><g
           id="g524"><g
             id="g526"><path
               id="path536"
               style="fill:url(#linearGradient534);stroke:none"
               d="m 1599.543,1291.23 c -13.497,-3.739 -26.345,-9.244 -37.974,-17.212 v 0 c -5.195,-3.56 -5.354,-4.795 -1.11,-9.246 v 0 c 5.506,-5.775 56.704,-58.473 56.704,-58.473 v 0 c 0,0 5.917,3.381 8.331,4.505 v 0 c 24.238,11.278 46.04,4.127 58.546,-18.793 v 0 c 7.861,-14.41 10.629,-29.974 11.211,-46.105 v 0 c 1.034,-28.65 -5.608,-56.08 -13.336,-83.326 v 0 c -9.809,-34.585 -25.903,-66.218 -45.133,-96.421 v 0 c -8.985,-14.114 -18.861,-27.432 -31.279,-38.73 v 0 c -9.006,-8.194 -18.884,-14.641 -31.289,-16.62 v 0 c -16.918,-2.698 -31.108,4.904 -38.121,20.464 v 0 c -6.28,13.931 -8.648,28.67 -9.07,43.711 v 0 c -0.663,23.746 3.109,47.048 7.618,70.295 v 0 c 6.04,31.134 14.648,61.41 27.955,90.273 v 0 c 2.81,6.098 1.716,8.159 -4.9,7.873 v 0 c -20.084,-0.867 -39.834,2.062 -59.598,4.744 v 0 c -10.782,1.464 -21.581,3.292 -30.845,9.76 v 0 c -2.05,1.432 -3.869,0.857 -5.057,-1.122 v 0 c -1.018,-1.695 -1.692,-3.605 -2.446,-5.449 v 0 c -10.251,-25.058 -16.136,-51.254 -21.415,-77.736 v 0 c -6.033,-30.263 -7.726,-60.7 -6.821,-91.377 v 0 c 0.871,-29.557 6.338,-58.13 19.07,-85.085 v 0 c 8.694,-18.407 20.687,-34.218 37.088,-46.289 v 0 c 37.135,-27.329 78.228,-30.03 120.796,-16.92 v 0 c 41.314,12.725 73.871,39.043 102.19,70.808 v 0 c 16.02,17.969 28.4,38.557 40.182,59.483 v 0 c 14.287,25.378 24.884,52.181 31.526,80.535 v 0 c 4.931,21.053 9.149,42.162 11.162,63.806 v 0 c 2.237,24.05 3.648,48.265 -1.527,71.685 v 0 c -10.393,47.032 -24.522,70.58 -48.535,89.912 v 0 c -15.688,12.627 -33.021,21.688 -53.256,25.791 v 0 c -11.557,2.344 -23.005,3.425 -34.37,3.426 v 0 c -18.94,0 -37.654,-3.002 -56.297,-8.167" /></g></g></g></g><g
       id="g538"><g
         id="g540"><g
           id="g546"><g
             id="g548"><path
               id="path558"
               style="fill:url(#linearGradient556);stroke:none"
               d="m 1210.427,1248.86 c -0.948,-0.483 -7.257,-5.009 -15.092,-10.704 v 0 c -7.834,-5.693 -16.184,-15.313 -22.523,-24.437 v 0 c -3.233,-4.654 -1.309,-7.546 4.867,-8.844 v 0 c 13.084,-2.75 25.944,-3.693 39.225,-2.107 v 0 c 16.423,1.959 22.905,6.009 26.263,11.97 v 0 c 3.358,5.961 3.246,11.963 -2.923,23.277 v 0 c -6.168,11.313 -8.795,13.474 -13.643,15.174 v 0 c -1.173,0.411 -2.446,0.605 -3.768,0.605 v 0 c -4.142,0 -8.775,-1.896 -12.406,-4.934" /></g></g></g></g><g
       id="g560"><g
         id="g562"><g
           id="g568"><g
             id="g570"><path
               id="path580"
               style="fill:url(#linearGradient578);stroke:none"
               d="m 1243.382,1487.408 c -0.112,-2.32 -0.128,-4.679 0.159,-6.978 v 0 c 2.559,-20.575 7.53,-40.5 17.098,-59.007 v 0 c 1.879,-3.635 5.091,-8.409 7.335,-10.395 v 0 c 4.059,-3.592 6.029,-4.509 8.329,-5.625 v 0 c 9.178,-4.607 16.179,-0.879 22.729,3.127 v 0 c 10.528,6.437 19.15,19.311 10.17,32.886 v 0 c -1.28,1.935 -2.876,3.657 -4.241,5.539 v 0 c -12.994,17.91 -31.324,29.587 -49.082,41.916 v 0 c -1.878,1.303 -4.102,2.328 -6.317,2.873 v 0 c -0.683,0.168 -1.333,0.255 -1.935,0.255 v 0 c -2.421,0 -4.091,-1.403 -4.245,-4.591" /></g></g></g></g><g
       id="g582"><g
         id="g584"><g
           id="g590"><g
             id="g592"><path
               id="path602"
               style="fill:url(#linearGradient600);stroke:none"
               d="m 1528.506,1388.516 c -5.786,-1.111 -26.929,-6.412 -29.018,-7.758 v 0 c 0,10e-4 -10e-4,0 -10e-4,0 v 0 c -12.543,-2.468 -19.597,-10.01 -19.789,-20.88 v 0 c -0.124,-7.034 3.156,-12.862 6.738,-18.356 v 0 c 10.351,-15.875 26.674,-16.435 39.402,-1.655 v 0 c 0.497,0.143 34.806,29.658 42.292,39.523 v 0 c 2.058,2.712 3.813,5.834 2.128,9.229 v 0 c -1.599,3.22 -5.083,2.625 -8.019,2.767 v 0 c -1.775,0.086 -3.55,0.127 -5.319,0.127 v 0 c -9.558,0 -19.021,-1.199 -28.414,-2.999 m -29.019,-7.756 c 0,0 0,0 0,0 v 0 c 0,10e-4 0,10e-4 0,10e-4 v 0 c 0,0 0,0 0,-10e-4" /></g></g></g></g><g
       id="g604"><g
         id="g606"><g
           id="g612"><g
             id="g614"><path
               id="path624"
               style="fill:url(#linearGradient622);stroke:none"
               d="m 563.319,1545.403 c -8.359,-5.753 -17.977,-13.174 -25.461,-21.476 v 0 c -13.897,-15.417 -23.673,-33.594 -34.023,-51.387 v 0 c -5.555,-9.551 -7.179,-10.102 -17.652,-7.828 v 0 c -2.919,0.633 -5.874,1.106 -8.807,1.683 v 0 c -24.279,4.77 -44.3,-6.269 -53.606,-29.049 v 0 c -8.496,-20.798 -9.96,-42.504 -9.249,-64.549 v 0 c 0.847,-26.236 4.679,-52.209 7.437,-78.265 v 0 c 1.068,-10.096 31.856,-212.415 36.008,-236.33 v 0 c 3.069,-17.678 3.028,-35.675 6.687,-53.388 v 0 c 5.919,-28.66 11.502,-57.385 18.53,-85.801 v 0 c 2.159,-8.73 4.774,-17.362 8.969,-25.381 v 0 c 11.378,-21.746 27.833,-36.565 53.645,-37.265 v 0 c 31.231,-0.848 49.782,19.558 50.695,46.059 v 0 c 0.346,10.062 -0.384,19.962 -2.582,29.766 v 0 c -4.807,21.436 -9.846,42.821 -14.386,64.311 v 0 c -5.088,24.079 -9.839,48.233 -14.519,72.395 v 0 c -2.149,11.094 -3.981,22.259 -5.573,33.446 v 0 c -1.055,7.417 1.732,9.282 8.406,6.196 v 0 c 4.893,-2.262 9.096,-5.596 13.2,-8.97 v 0 c 20.826,-17.128 41.676,-34.231 62.278,-51.626 v 0 c 37.129,-31.348 74.126,-62.867 113.601,-91.272 v 0 c 29.443,-21.185 58.175,-43.385 89.518,-61.876 v 0 c 24.398,-14.393 48.74,-28.759 75.595,-38.272 v 0 c 22.061,-7.816 44.478,-11.343 67.692,-6.123 v 0 c 5.038,1.132 9.823,0.587 14.734,-0.967 v 0 c 7.291,-2.308 14.351,-5.476 21.99,-6.578 v 0 c 34.165,-4.924 66.229,2.026 96.673,17.505 v 0 c 41.274,20.986 75.331,51.191 106.869,84.477 v 0 c 8.719,9.203 11.801,20.124 9.543,33.121 v 0 c -4.338,24.973 -34.701,38.691 -57.118,27.189 v 0 c -5.407,-2.774 -9.806,-6.851 -13.968,-11.209 v 0 c -19.908,-20.844 -43.237,-37.458 -66.778,-53.789 v 0 c -11.792,-8.181 -24.888,-13.772 -38.36,-18.537 v 0 c -4.088,-0.061 -8.176,-0.124 -12.266,-0.186 v 0 c -0.572,-1.071 -1.144,-2.142 -1.717,-3.214 v 0 c -10e-4,0.001 1.145,2.143 1.717,3.214 v 0 c -2.597,3.057 -6.465,3.466 -9.911,4.755 v 0 c -0.905,1.96 -2.385,3.288 -4.407,4.022 v 0 c -3.7,6.645 -7.688,13.149 -11.046,19.962 v 0 c -10.951,22.218 -17.814,45.831 -23.299,69.888 v 0 c -2.977,13.063 -1.584,14.964 11.962,16.278 v 0 c 0.332,0.032 0.664,0.067 0.996,0.073 v 0 c 33.104,0.659 65.643,5.751 97.907,12.748 v 0 c 14.358,3.114 28.338,7.398 40.444,16.29 v 0 c 21.194,15.569 24.591,36.926 8.921,58.08 v 0 c -9.314,12.573 -18.747,25.068 -28.449,37.344 v 0 c -17.945,22.708 -35.573,45.69 -55.143,67.059 v 0 c -2.841,3.103 -5.238,7.02 -9.913,7.945 v 0 c -0.814,2.073 -2.282,3.461 -4.387,4.183 v 0 c -4.708,6.55 -9.884,12.569 -17.703,15.59 v 0 c 0,-10e-4 -0.404,0.329 -0.404,0.329 v 0 c -1.367,3.322 -3.753,5.302 -7.405,5.616 v 0 c -1.278,0.912 -2.557,1.826 -3.836,2.742 v 0 c -0.596,2.098 -1.923,3.237 -4.168,3.172 v 0 c -0.384,0.557 -0.915,0.87 -1.592,0.934 v 0 c -0.808,1.964 -2.082,3.278 -4.393,3.154 v 0 c -2.578,2.57 -5.352,4.782 -9.209,5.006 v 0 c -11.309,8.131 -33.187,9.537 -45.139,2.885 v 0 c -0.27,-0.15 -0.428,-0.498 -0.634,-0.755 v 0 c -3.862,-0.011 -6.908,-2.101 -10.115,-3.857 v 0 c -16.145,-8.842 -27.612,-22.339 -38.789,-36.652 v 0 c -13.103,-16.784 -15.421,-35.376 -13.527,-55.397 v 0 c -0.23,-9.493 -0.453,-18.989 -0.676,-28.486 v 0 c -1.23,-22.038 -7.316,-41.819 -24.689,-46.342 v 0 c -3.062,-0.798 -23.069,-9.166 -29.283,-15.792 v 0 c -5.781,-3.815 -7.656,-15.654 -7.598,-22.464 v 0 c 0.118,-14.026 7.304,-23.655 18.315,-31.312 v 0 c 8.827,-6.138 19.185,-7.321 29.217,-9.274 v 0 c 5.421,-1.055 7.974,-3.529 9.445,-8.614 v 0 c 3.049,-10.543 4.259,-21.471 7.603,-31.994 v 0 c 2.615,-8.226 5.688,-16.323 7.942,-24.67 v 0 c 0.762,-2.822 2.96,-6.121 0.381,-8.415 v 0 c -3.087,-2.744 -6.391,0.174 -8.976,1.811 v 0 c -19.118,12.107 -38.374,24.027 -57.058,36.781 v 0 c -42.629,29.097 -82.585,61.738 -122.755,94.057 v 0 c -21.499,17.296 -42.342,35.404 -63.444,53.189 v 0 c -5.087,4.287 -10.23,8.54 -14.98,13.182 v 0 c -6.001,5.866 -5.947,7.886 0.125,13.961 v 0 c 3.755,3.756 7.849,7.197 11.974,10.554 v 0 c 12.901,10.496 25.921,20.821 37.774,32.556 v 0 c 16.563,16.398 32.574,33.299 48.233,50.556 v 0 c 8.073,8.9 15.446,18.282 22.072,28.284 v 0 c 3.203,4.837 22.391,38.179 30.275,75.935 v 0 c 7.882,37.758 6.616,62.719 6.628,83.431 v 0 c 0.01,20.713 -3.53,34.716 -7.536,47.119 v 0 c -9.373,29.024 -27.299,51.623 -51.892,68.779 v 0 c -20.253,14.126 -42.951,22.188 -68.097,22.188 v 0 c -55.638,0 -77.317,-14.792 -117.483,-42.438 m -22.056,-327.467 c -3.587,13.848 -7.307,27.653 -9.138,41.89 v 0 c -0.57,4.435 0.833,8.592 1.268,12.87 v 0 c 4.014,39.502 11.27,78.438 24.602,115.863 v 0 c 11.452,32.147 26.616,62.65 50.683,87.546 v 0 c 10.198,10.548 22.543,18.687 36.44,24.038 v 0 c 25.639,9.872 49.027,-0.512 59.731,-25.878 v 0 c 6.756,-16.01 8.682,-32.682 8.849,-49.738 v 0 c -0.004,-29.366 -8.916,-56.177 -22.252,-82.029 v 0 c -16.387,-31.769 -37.31,-59.835 -64.364,-83.251 v 0 c -20.982,-18.16 -43.044,-34.67 -69.258,-44.762 v 0 c -2.484,-0.956 -4.864,-2.097 -7.594,-2.349 v 0 c -0.509,-0.047 -1.001,-0.071 -1.474,-0.071 v 0 c -3.782,0 -6.38,1.568 -7.493,5.871 m 450.285,-95.277 c -0.177,6.656 -0.036,13.321 -0.036,19.982 v 0 c -0.396,10.678 0.699,21.291 1.469,31.915 v 0 c 0.143,1.98 0.285,4.022 0.875,5.895 v 0 c 1.142,3.62 3.664,4.739 6.904,2.565 v 0 c 2.188,-1.467 4.279,-3.247 5.97,-5.259 v 0 c 12.633,-15.023 25.768,-29.651 36.793,-45.956 v 0 c 1.293,-1.91 2.553,-3.929 3.333,-6.078 v 0 c 1.033,-2.845 0.173,-5.307 -2.822,-6.538 v 0 c -2.151,-0.885 -4.363,-1.649 -6.594,-2.307 v 0 c -11.618,-3.433 -23.739,-2.94 -35.616,-4.23 v 0 c -0.803,-0.087 -1.549,-0.132 -2.241,-0.132 v 0 c -5.874,0 -7.851,3.182 -8.035,10.143 m 135.348,-61.09 c -0.745,-0.477 -1.294,-1.261 -1.542,-2.524 v 0 c 0.248,1.263 0.797,2.047 1.542,2.524" /></g></g></g></g><g
       id="g626"><g
         id="g628"><g
           id="g634"><g
             id="g636"><path
               id="path646"
               style="fill:url(#linearGradient644);stroke:none"
               d="m 1295.882,1378.86 c -31.521,-22.888 -45.903,-54.876 -45.607,-92.969 v 0 c 0.243,-31.328 13.136,-58.247 35.668,-79.97 v 0 c 11.149,-10.747 36.626,-22.072 44.569,-25.223 v 0 c 17.621,-6.988 36.032,-6.838 54.088,-3.034 v 0 c 45.128,9.506 73.928,37.259 87.421,81.102 v 0 c 16.825,54.668 -14.913,111.678 -59.136,131.309 v 0 c -17.352,7.704 -34.342,11.657 -50.937,11.658 v 0 c -22.782,10e-4 -44.823,-7.449 -66.066,-22.873" /></g></g></g></g><g
       id="g648"><g
         clip-path="url(#clipPath654)"
         id="g650"><g
           transform="translate(2317.4277,687.5478)"
           id="g656"><path
             id="path658"
             style="fill:#ffab00;fill-opacity:1;fill-rule:nonzero;stroke:none"
             d="m 0,0 c -0.977,-17.64 -3.166,-35.058 -9.998,-51.556 -2.302,-5.556 -5.176,-10.851 -9.679,-14.95 -5.641,-5.134 -11.023,-4.202 -14.659,2.356 -1.622,2.925 -2.708,6.049 -2.946,9.442 -1.588,22.644 4.088,43.47 15.827,62.73 2.65,4.347 6.261,7.805 11.427,9.075 6.372,1.568 9.518,-0.634 9.986,-7.129 C 0.197,6.662 0,3.324 0,0 m -10.699,-189.76 c -2.138,-11.173 -4.2,-22.393 -9.415,-32.67 -1.049,-2.066 -2.422,-4.038 -3.965,-5.769 -3.75,-4.206 -8.654,-5.661 -12.546,-3.832 -4.552,2.14 -4.2,6.382 -4.493,10.543 2.37,16.533 9.985,30.293 22.706,41.105 3.741,3.18 6.965,1.531 7.662,-3.364 0.281,-1.973 0.421,-4.078 0.051,-6.013 m 52.235,59.339 c -12.637,3.082 -12.652,3.079 -12.596,15.558 0.145,32.306 0.277,64.612 0.493,96.917 0.025,3.643 0.673,7.277 0.839,10.925 0.679,14.948 2.27,29.974 -1.098,44.764 -2.818,12.377 -15.053,17.359 -25.463,10.151 -3.894,-2.697 -7.482,-3.81 -11.94,-3.651 -13.133,0.471 -23.842,-4.951 -33.168,-13.766 -9.2,-8.696 -14.89,-19.582 -19.194,-31.198 -9.12,-24.614 -12.493,-49.639 -3.794,-75.167 7.26,-21.304 27.929,-29.726 48.226,-20.03 4.155,1.984 7.4,5.703 13.602,6.633 1.268,-11.365 -0.089,-22.002 0.427,-32.576 0.371,-7.629 -2.6,-12.016 -9.418,-15.687 -25.354,-13.65 -44.212,-33.864 -57.233,-59.488 -4.743,-9.334 -7.671,-19.23 -6.803,-29.827 1.313,-16.03 7.679,-29.049 23.539,-35.225 20.921,-8.147 44.686,-0.36 57.317,18.322 7.356,10.881 12.147,22.782 15.267,35.567 3.265,13.385 4.049,26.934 4.807,40.572 0.521,9.393 5.227,11.802 13.217,6.954 7.664,-4.65 11.422,-11.475 11.525,-20.753 0.101,-8.985 4.42,-13.678 11.842,-14.756 7.737,-1.125 14.075,2.674 17.339,10.389 2.446,5.783 2.376,11.767 0.785,17.639 -5.434,20.06 -18.204,32.78 -38.518,37.733" /></g><g
           transform="translate(2100.333,598.6105)"
           id="g660"><path
             id="path662"
             style="fill:#ffab00;fill-opacity:1;fill-rule:nonzero;stroke:none"
             d="m 0,0 c -9.503,-0.207 -19.873,-11.109 -19.59,-21.699 0.372,-13.963 8.777,-21.251 21.099,-21.702 11.617,-0.425 20.538,9.143 20.647,21.038 C 22.264,-10.576 11.536,0.252 0,0" /></g><g
           transform="translate(2246.137,577.0709)"
           id="g664"><path
             id="path666"
             style="fill:#ffab00;fill-opacity:1;fill-rule:nonzero;stroke:none"
             d="m 0,0 c 4.963,6.841 5.846,12.484 1.558,17.83 -0.612,0.763 -1.33,1.521 -2.157,2.275 -7.1,6.478 -8.909,14.555 -9.343,23.258 -0.529,10.603 -2.132,59.991 -2.169,62.385 -0.085,5.585 -1.272,10.97 -2.98,16.203 -1.464,4.485 -3.31,8.858 -5.173,13.148 -3.236,7.453 -10.04,13.543 -18.974,14.895 -12.731,1.925 -24.518,-0.841 -34.823,-8.815 -8.183,-6.333 -8.442,-6.822 -17,-0.777 -7.011,4.952 -13.29,3.725 -19.327,-0.603 -5.462,-3.915 -7.977,-9.42 -6.365,-16.54 1.83,-8.086 4.017,-16.243 4.485,-24.458 1.381,-24.215 4.888,-48.316 4.103,-72.653 -0.15,-4.659 -0.237,-9.343 0.065,-13.989 0.577,-8.849 5.685,-14.281 14.901,-16.325 6.49,-1.44 14.395,2.844 17.857,9.927 2.672,5.466 4.426,11.351 3.546,17.406 -1.977,13.596 -0.837,27.275 -1.666,40.884 -0.596,9.759 2.153,19.115 3.004,28.694 0.418,4.717 3.5,9.235 5.561,13.76 2.177,4.778 6.449,5.295 10.995,4.898 4.535,-0.396 5.986,-3.991 6.921,-7.518 0.754,-2.842 0.764,-5.925 0.803,-8.905 0.155,-11.993 0.586,-24.001 0.156,-35.976 -0.374,-10.411 1.54,-20.548 2.645,-30.758 1.182,-10.917 6.334,-20.241 14.885,-27.373 0.483,-0.403 0.986,-0.782 1.506,-1.137 1.039,-0.71 2.147,-1.324 3.304,-1.842 7.523,-3.365 17.138,-2.667 23.684,2.104 C 0.001,-0.002 0.001,-0.001 0,0" /></g><g
           transform="translate(2436.4009,660.2494)"
           id="g668"><path
             id="path670"
             style="fill:#ffab00;fill-opacity:1;fill-rule:nonzero;stroke:none"
             d="m 0,0 c -2.524,-12.13 -7.047,-23.6 -12.545,-34.658 -2.989,-6.013 -7.039,-11.372 -12.588,-15.292 -7.461,-5.271 -14.06,-3.319 -17.733,5.066 -2.904,6.628 -2.422,13.69 -2.575,20.697 0.727,17.489 4.82,34.192 12.169,50.062 2.236,4.828 5.24,9.251 9.149,13.003 9.772,9.38 19.11,7.177 23.717,-5.412 C 3.681,22.298 2.32,11.149 0,0 M 32.665,47.106 C 24.593,67.611 4.189,78.593 -15.708,76.085 -35.328,73.612 -50.244,62.246 -60.549,45.82 -73.758,24.765 -78.341,1.016 -79.404,-23.508 c -0.518,-11.174 2.121,-21.907 5.273,-32.367 5.741,-19.051 28.129,-30.932 47.716,-27.054 24.348,4.82 38.093,22.032 49.235,41.681 5.817,10.257 9.889,21.623 12.08,33.574 3.393,18.514 4.94,36.554 -2.235,54.78" /></g></g></g><g
       id="g672"><g
         id="g674"><g
           id="g680"><g
             id="g682"><path
               id="path692"
               style="fill:url(#linearGradient690);stroke:none"
               d="m 1831.241,1429.434 c 0,-27.407 22.217,-49.624 49.624,-49.624 v 0 c 27.407,0 49.625,22.217 49.625,49.624 v 0 c 0,27.408 -22.218,49.626 -49.625,49.626 v 0 c -27.407,0 -49.624,-22.218 -49.624,-49.626" /></g></g></g></g><g
       id="g694"><g
         clip-path="url(#clipPath700)"
         id="g696"><g
           transform="translate(641.1555,1377.266)"
           id="g702"><path
             id="path704"
             style="fill:#fefefd;fill-opacity:1;fill-rule:nonzero;stroke:none"
             d="m 0,0 c -5.637,-15.957 -11.318,-31.928 -19.8,-46.715 -4.825,-8.411 -10.078,-16.442 -17.473,-22.851 -2.256,-1.956 -4.56,-3.948 -7.49,-4.826 -4.546,-1.361 -7.064,0.27 -7.166,5.02 -0.099,4.616 -0.117,9.201 1.184,13.824 5.395,19.169 10.453,38.381 17.096,57.234 6.429,18.245 15.517,34.246 29.328,47.655 1.19,1.155 2.264,2.512 3.642,3.376 3.833,2.403 7.118,0.89 7.868,-3.737 C 7.664,46.042 7.571,43.012 7.812,38.58 6.334,26.452 4.558,12.902 0,0 M 64.019,97.246 C 53.314,122.612 29.927,132.996 4.289,123.124 -9.609,117.772 -21.954,109.635 -32.152,99.086 -56.219,74.19 -71.383,43.686 -82.835,11.54 c -13.332,-37.425 -20.588,-76.361 -24.602,-115.863 -0.435,-4.279 -1.839,-8.436 -1.268,-12.87 1.832,-14.236 5.552,-28.042 9.138,-41.89 1.253,-4.841 4.385,-6.221 8.968,-5.8 2.729,0.251 5.109,1.393 7.594,2.349 26.213,10.091 48.275,26.602 69.257,44.762 27.054,23.416 47.977,51.481 64.365,83.251 13.335,25.852 22.248,52.663 22.251,82.029 -0.167,17.056 -2.093,33.728 -8.849,49.738" /></g></g></g></g></svg>
